<svg width="25" height="24" viewBox="0 0 25 24" fill="none" xmlns="http://www.w3.org/2000/svg">
<path d="M12.2998 9.25H2.7998C2.3898 9.25 2.0498 8.91 2.0498 8.5C2.0498 8.09 2.3898 7.75 2.7998 7.75H12.2998C12.7098 7.75 13.0498 8.09 13.0498 8.5C13.0498 8.91 12.7098 9.25 12.2998 9.25Z" fill="white"/>
<path d="M8.7998 17.25H6.7998C6.3898 17.25 6.0498 16.91 6.0498 16.5C6.0498 16.09 6.3898 15.75 6.7998 15.75H8.7998C9.2098 15.75 9.5498 16.09 9.5498 16.5C9.5498 16.91 9.2098 17.25 8.7998 17.25Z" fill="white"/>
<path d="M15.2998 17.25H11.2998C10.8898 17.25 10.5498 16.91 10.5498 16.5C10.5498 16.09 10.8898 15.75 11.2998 15.75H15.2998C15.7098 15.75 16.0498 16.09 16.0498 16.5C16.0498 16.91 15.7098 17.25 15.2998 17.25Z" fill="white"/>
<path d="M18.3598 21.25H7.2398C3.2598 21.25 2.0498 20.05 2.0498 16.11V7.89C2.0498 3.95 3.2598 2.75 7.2398 2.75H15.2998C15.7098 2.75 16.0498 3.09 16.0498 3.5C16.0498 3.91 15.7098 4.25 15.2998 4.25H7.2398C4.0998 4.25 3.5498 4.79 3.5498 7.89V16.1C3.5498 19.2 4.0998 19.74 7.2398 19.74H18.3498C21.4898 19.74 22.0398 19.2 22.0398 16.1V12.02C22.0398 11.61 22.3798 11.27 22.7898 11.27C23.1998 11.27 23.5398 11.61 23.5398 12.02V16.1C23.5498 20.05 22.3398 21.25 18.3598 21.25Z" fill="white"/>
<path d="M16.3197 11.44C15.9297 11.44 15.5597 11.3 15.2997 11.03C14.9797 10.71 14.8397 10.25 14.9097 9.76999L15.1097 8.34999C15.1597 7.98999 15.3797 7.55999 15.6297 7.30999L19.3397 3.59999C20.8097 2.12999 22.0897 2.96999 22.7297 3.59999C23.3597 4.22999 24.1997 5.50999 22.7297 6.98999L19.0197 10.7C18.7597 10.96 18.3297 11.17 17.9797 11.22L16.5597 11.42C16.4797 11.43 16.3997 11.44 16.3197 11.44ZM21.0297 4.27999C20.8297 4.27999 20.6497 4.41999 20.3997 4.65999L16.6997 8.36999C16.6697 8.40999 16.6097 8.51999 16.5997 8.56999L16.3997 9.91999L17.7597 9.72999C17.8097 9.71999 17.9197 9.65999 17.9597 9.62999L21.6697 5.91999C22.1397 5.44999 22.2097 5.18999 21.6697 4.65999C21.4097 4.39999 21.2197 4.27999 21.0297 4.27999Z" fill="white"/>
<path d="M21.67 7.73999C21.6 7.73999 21.53 7.73 21.47 7.71C20.1 7.31999 19.01 6.23999 18.63 4.86999C18.52 4.46999 18.75 4.05999 19.15 3.93999C19.55 3.82999 19.96 4.05999 20.08 4.45999C20.33 5.32999 21.02 6.01999 21.89 6.26999C22.29 6.37999 22.52 6.79999 22.41 7.19C22.3 7.51999 22 7.73999 21.67 7.73999Z" fill="white"/>
</svg>
