<svg width="25" height="24" viewBox="0 0 25 24" fill="none" xmlns="http://www.w3.org/2000/svg">
<path d="M13.8999 9.25H2.3999C1.9899 9.25 1.6499 8.91 1.6499 8.5C1.6499 8.09 1.9899 7.75 2.3999 7.75H13.8999C14.3099 7.75 14.6499 8.09 14.6499 8.5C14.6499 8.91 14.3099 9.25 13.8999 9.25Z" fill="white"/>
<path d="M8.3999 17.25H6.3999C5.9899 17.25 5.6499 16.91 5.6499 16.5C5.6499 16.09 5.9899 15.75 6.3999 15.75H8.3999C8.8099 15.75 9.1499 16.09 9.1499 16.5C9.1499 16.91 8.8099 17.25 8.3999 17.25Z" fill="white"/>
<path d="M14.8999 17.25H10.8999C10.4899 17.25 10.1499 16.91 10.1499 16.5C10.1499 16.09 10.4899 15.75 10.8999 15.75H14.8999C15.3099 15.75 15.6499 16.09 15.6499 16.5C15.6499 16.91 15.3099 17.25 14.8999 17.25Z" fill="white"/>
<path d="M17.9599 21.25H6.8399C2.8599 21.25 1.6499 20.05 1.6499 16.11V7.89C1.6499 3.95 2.8599 2.75 6.8399 2.75H13.8999C14.3099 2.75 14.6499 3.09 14.6499 3.5C14.6499 3.91 14.3099 4.25 13.8999 4.25H6.8399C3.6999 4.25 3.1499 4.79 3.1499 7.89V16.1C3.1499 19.2 3.6999 19.74 6.8399 19.74H17.9499C21.0899 19.74 21.6399 19.2 21.6399 16.1V12.02C21.6399 11.61 21.9799 11.27 22.3899 11.27C22.7999 11.27 23.1399 11.61 23.1399 12.02V16.1C23.1499 20.05 21.9399 21.25 17.9599 21.25Z" fill="white"/>
<path d="M17.7099 8.93999C17.5199 8.93999 17.3299 8.86999 17.1799 8.71999C16.8899 8.42999 16.8899 7.94999 17.1799 7.65999L21.0699 3.76999C21.3599 3.47999 21.8399 3.47999 22.1299 3.76999C22.4199 4.05999 22.4199 4.53999 22.1299 4.82999L18.2399 8.71999C18.0899 8.86999 17.8999 8.93999 17.7099 8.93999Z" fill="white"/>
<path d="M21.5901 8.93999C21.4001 8.93999 21.2101 8.86999 21.0601 8.71999L17.1701 4.82999C16.8801 4.53999 16.8801 4.05999 17.1701 3.76999C17.4601 3.47999 17.9401 3.47999 18.2301 3.76999L22.1201 7.65999C22.4101 7.94999 22.4101 8.42999 22.1201 8.71999C21.9801 8.86999 21.7901 8.93999 21.5901 8.93999Z" fill="white"/>
</svg>
