<svg width="25" height="24" viewBox="0 0 25 24" fill="none" xmlns="http://www.w3.org/2000/svg">
<path d="M12.7998 22.75C12.1698 22.75 11.5798 22.51 11.1398 22.06L9.61981 20.54C9.49981 20.42 9.17981 20.29 9.01981 20.29H6.8598C5.5598 20.29 4.5098 19.2399 4.5098 17.9399V15.78C4.5098 15.62 4.3798 15.3 4.2598 15.18L2.73981 13.66C2.29981 13.22 2.0498 12.63 2.0498 12C2.0498 11.37 2.28981 10.7799 2.73981 10.3399L4.2598 8.81991C4.3798 8.69991 4.5098 8.37994 4.5098 8.21994V6.06002C4.5098 4.76002 5.5598 3.70993 6.8598 3.70993H9.01981C9.17981 3.70993 9.49981 3.57993 9.61981 3.45993L11.1398 1.93991C12.0198 1.05991 13.5798 1.05991 14.4598 1.93991L15.9798 3.45993C16.0998 3.57993 16.4198 3.70993 16.5798 3.70993H18.7398C20.0398 3.70993 21.0898 4.76002 21.0898 6.06002V8.21994C21.0898 8.37994 21.2198 8.69991 21.3398 8.81991L22.8598 10.3399C23.2998 10.7799 23.5498 11.37 23.5498 12C23.5498 12.63 23.3098 13.22 22.8598 13.66L21.3398 15.18C21.2198 15.3 21.0898 15.62 21.0898 15.78V17.9399C21.0898 19.2399 20.0398 20.29 18.7398 20.29H16.5798C16.4198 20.29 16.0998 20.42 15.9798 20.54L14.4598 22.06C14.0198 22.51 13.4298 22.75 12.7998 22.75ZM5.31979 14.12C5.71979 14.52 6.0098 15.22 6.0098 15.78V17.9399C6.0098 18.4099 6.3898 18.79 6.8598 18.79H9.01981C9.57981 18.79 10.2798 19.0799 10.6798 19.4799L12.1998 21C12.5198 21.32 13.0798 21.32 13.3998 21L14.9198 19.4799C15.3198 19.0799 16.0198 18.79 16.5798 18.79H18.7398C19.2098 18.79 19.5898 18.4099 19.5898 17.9399V15.78C19.5898 15.22 19.8798 14.52 20.2798 14.12L21.7998 12.5999C21.9598 12.4399 22.0498 12.23 22.0498 12C22.0498 11.77 21.9598 11.56 21.7998 11.4L20.2798 9.87997C19.8798 9.47997 19.5898 8.77994 19.5898 8.21994V6.06002C19.5898 5.59002 19.2098 5.20993 18.7398 5.20993H16.5798C16.0198 5.20993 15.3198 4.91999 14.9198 4.51999L13.3998 2.99997C13.0798 2.67997 12.5198 2.67997 12.1998 2.99997L10.6798 4.51999C10.2798 4.91999 9.57981 5.20993 9.01981 5.20993H6.8598C6.3898 5.20993 6.0098 5.59002 6.0098 6.06002V8.21994C6.0098 8.77994 5.71979 9.47997 5.31979 9.87997L3.7998 11.4C3.6398 11.56 3.5498 11.77 3.5498 12C3.5498 12.23 3.6398 12.4399 3.7998 12.5999L5.31979 14.12Z" fill="white"/>
<path d="M15.8 16C15.24 16 14.79 15.55 14.79 15C14.79 14.45 15.24 14 15.79 14C16.34 14 16.79 14.45 16.79 15C16.79 15.55 16.35 16 15.8 16Z" fill="white"/>
<path d="M9.80981 10C9.24981 10 8.7998 9.55 8.7998 9C8.7998 8.45 9.2498 8 9.7998 8C10.3498 8 10.7998 8.45 10.7998 9C10.7998 9.55 10.3598 10 9.80981 10Z" fill="white"/>
<path d="M9.79974 15.75C9.60974 15.75 9.41975 15.68 9.26975 15.53C8.97975 15.24 8.97975 14.7599 9.26975 14.4699L15.2697 8.46994C15.5597 8.17994 16.0397 8.17994 16.3297 8.46994C16.6197 8.75994 16.6197 9.24 16.3297 9.53L10.3297 15.53C10.1797 15.68 9.98974 15.75 9.79974 15.75Z" fill="white"/>
</svg>
