<svg width="25" height="24" viewBox="0 0 25 24" fill="none" xmlns="http://www.w3.org/2000/svg">
<path d="M12.6001 22.75C6.6701 22.75 1.8501 17.93 1.8501 12C1.8501 6.07 6.6701 1.25 12.6001 1.25C18.5301 1.25 23.3501 6.07 23.3501 12C23.3501 17.93 18.5301 22.75 12.6001 22.75ZM12.6001 2.75C7.5001 2.75 3.3501 6.9 3.3501 12C3.3501 17.1 7.5001 21.25 12.6001 21.25C17.7001 21.25 21.8501 17.1 21.8501 12C21.8501 6.9 17.7001 2.75 12.6001 2.75Z" fill="white"/>
<path d="M15.6003 16C15.0403 16 14.5903 15.55 14.5903 15C14.5903 14.45 15.0403 14 15.5903 14C16.1403 14 16.5903 14.45 16.5903 15C16.5903 15.55 16.1503 16 15.6003 16Z" fill="white"/>
<path d="M9.61011 10C9.05011 10 8.6001 9.55 8.6001 9C8.6001 8.45 9.0501 8 9.6001 8C10.1501 8 10.6001 8.45 10.6001 9C10.6001 9.55 10.1601 10 9.61011 10Z" fill="white"/>
<path d="M9.60007 15.75C9.41007 15.75 9.22004 15.68 9.07004 15.53C8.78004 15.24 8.78004 14.7599 9.07004 14.4699L15.07 8.46994C15.36 8.17994 15.8401 8.17994 16.1301 8.46994C16.4201 8.75994 16.4201 9.24 16.1301 9.53L10.1301 15.53C9.9801 15.68 9.79007 15.75 9.60007 15.75Z" fill="white"/>
</svg>
