<svg width="25" height="24" viewBox="0 0 25 24" fill="none" xmlns="http://www.w3.org/2000/svg">
<path d="M18.1399 22.75H6.6599C4.1699 22.75 2.1499 20.73 2.1499 18.24V11.51C2.1499 9.02001 4.1699 7 6.6599 7H18.1399C20.6299 7 22.6499 9.02001 22.6499 11.51V12.95C22.6499 13.36 22.3099 13.7 21.8999 13.7H19.8799C19.5299 13.7 19.2099 13.83 18.9799 14.07L18.9699 14.08C18.6899 14.35 18.5599 14.72 18.5899 15.1C18.6499 15.76 19.2799 16.29 19.9999 16.29H21.8999C22.3099 16.29 22.6499 16.63 22.6499 17.04V18.23C22.6499 20.73 20.6299 22.75 18.1399 22.75ZM6.6599 8.5C4.9999 8.5 3.6499 9.85001 3.6499 11.51V18.24C3.6499 19.9 4.9999 21.25 6.6599 21.25H18.1399C19.7999 21.25 21.1499 19.9 21.1499 18.24V17.8H19.9999C18.4899 17.8 17.2099 16.68 17.0899 15.24C17.0099 14.42 17.3099 13.61 17.9099 13.02C18.4299 12.49 19.1299 12.2 19.8799 12.2H21.1499V11.51C21.1499 9.85001 19.7999 8.5 18.1399 8.5H6.6599Z" fill="white"/>
<path d="M2.8999 13.16C2.4899 13.16 2.1499 12.82 2.1499 12.41V7.84006C2.1499 6.35006 3.0899 5.00001 4.4799 4.47001L12.4199 1.47001C13.2399 1.16001 14.1499 1.27005 14.8599 1.77005C15.5799 2.27005 15.9999 3.08005 15.9999 3.95005V7.75003C15.9999 8.16003 15.6599 8.50003 15.2499 8.50003C14.8399 8.50003 14.4999 8.16003 14.4999 7.75003V3.95005C14.4999 3.57005 14.3199 3.22003 13.9999 3.00003C13.6799 2.78003 13.2999 2.73003 12.9399 2.87003L4.9999 5.87003C4.1899 6.18003 3.6399 6.97006 3.6399 7.84006V12.41C3.6499 12.83 3.3099 13.16 2.8999 13.16Z" fill="white"/>
<path d="M19.9999 17.7999C18.4899 17.7999 17.2099 16.6799 17.0899 15.2399C17.0099 14.4099 17.3099 13.5999 17.9099 13.0099C18.4199 12.4899 19.1199 12.2 19.8699 12.2H21.9499C22.9399 12.23 23.6999 13.0099 23.6999 13.9699V16.03C23.6999 16.99 22.9399 17.7699 21.9799 17.7999H19.9999ZM21.9299 13.7H19.8799C19.5299 13.7 19.2099 13.8299 18.9799 14.0699C18.6899 14.3499 18.5499 14.7299 18.5899 15.1099C18.6499 15.7699 19.2799 16.2999 19.9999 16.2999H21.9599C22.0899 16.2999 22.2099 16.18 22.2099 16.03V13.9699C22.2099 13.8199 22.0899 13.71 21.9299 13.7Z" fill="white"/>
<path d="M14.3999 12.75H7.3999C6.9899 12.75 6.6499 12.41 6.6499 12C6.6499 11.59 6.9899 11.25 7.3999 11.25H14.3999C14.8099 11.25 15.1499 11.59 15.1499 12C15.1499 12.41 14.8099 12.75 14.3999 12.75Z" fill="white"/>
</svg>
