<svg width="25" height="24" viewBox="0 0 25 24" fill="none" xmlns="http://www.w3.org/2000/svg">
<path d="M17.7998 21.25H7.7998C4.1498 21.25 2.0498 19.15 2.0498 15.5V8.5C2.0498 4.85 4.1498 2.75 7.7998 2.75H17.7998C21.4498 2.75 23.5498 4.85 23.5498 8.5V15.5C23.5498 19.15 21.4498 21.25 17.7998 21.25ZM7.7998 4.25C4.9398 4.25 3.5498 5.64 3.5498 8.5V15.5C3.5498 18.36 4.9398 19.75 7.7998 19.75H17.7998C20.6598 19.75 22.0498 18.36 22.0498 15.5V8.5C22.0498 5.64 20.6598 4.25 17.7998 4.25H7.7998Z" fill="white"/>
<path d="M12.7998 15.75C10.7298 15.75 9.0498 14.07 9.0498 12C9.0498 9.93 10.7298 8.25 12.7998 8.25C14.8698 8.25 16.5498 9.93 16.5498 12C16.5498 14.07 14.8698 15.75 12.7998 15.75ZM12.7998 9.75C11.5598 9.75 10.5498 10.76 10.5498 12C10.5498 13.24 11.5598 14.25 12.7998 14.25C14.0398 14.25 15.0498 13.24 15.0498 12C15.0498 10.76 14.0398 9.75 12.7998 9.75Z" fill="white"/>
<path d="M3.7998 9.75H2.7998C2.3898 9.75 2.0498 9.41 2.0498 9C2.0498 8.59 2.3898 8.25 2.7998 8.25H3.7998C6.3798 8.25 7.0498 7.58 7.0498 5V4C7.0498 3.59 7.3898 3.25 7.7998 3.25C8.2098 3.25 8.5498 3.59 8.5498 4V5C8.5498 8.42 7.2198 9.75 3.7998 9.75Z" fill="white"/>
<path d="M22.7998 9.75H21.7998C18.3798 9.75 17.0498 8.42 17.0498 5V4C17.0498 3.59 17.3898 3.25 17.7998 3.25C18.2098 3.25 18.5498 3.59 18.5498 4V5C18.5498 7.58 19.2198 8.25 21.7998 8.25H22.7998C23.2098 8.25 23.5498 8.59 23.5498 9C23.5498 9.41 23.2098 9.75 22.7998 9.75Z" fill="white"/>
<path d="M7.7998 20.75C7.3898 20.75 7.0498 20.41 7.0498 20V19C7.0498 16.42 6.3798 15.75 3.7998 15.75H2.7998C2.3898 15.75 2.0498 15.41 2.0498 15C2.0498 14.59 2.3898 14.25 2.7998 14.25H3.7998C7.2198 14.25 8.5498 15.58 8.5498 19V20C8.5498 20.41 8.2098 20.75 7.7998 20.75Z" fill="white"/>
<path d="M17.7998 20.75C17.3898 20.75 17.0498 20.41 17.0498 20V19C17.0498 15.58 18.3798 14.25 21.7998 14.25H22.7998C23.2098 14.25 23.5498 14.59 23.5498 15C23.5498 15.41 23.2098 15.75 22.7998 15.75H21.7998C19.2198 15.75 18.5498 16.42 18.5498 19V20C18.5498 20.41 18.2098 20.75 17.7998 20.75Z" fill="white"/>
</svg>
