<svg width="25" height="24" viewBox="0 0 25 24" fill="none" xmlns="http://www.w3.org/2000/svg">
<path d="M9.36957 16.02C9.17957 16.02 8.98957 15.95 8.83957 15.8C8.54957 15.51 8.54957 15.03 8.83957 14.74L15.3896 8.19003C15.6796 7.90003 16.1596 7.90003 16.4496 8.19003C16.7396 8.48003 16.7396 8.96003 16.4496 9.25003L9.89957 15.8C9.74957 15.95 9.55957 16.02 9.36957 16.02Z" fill="white"/>
<path d="M9.77982 11.11C8.68982 11.11 7.7998 10.22 7.7998 9.13004C7.7998 8.04004 8.68982 7.15002 9.77982 7.15002C10.8698 7.15002 11.7598 8.04004 11.7598 9.13004C11.7598 10.22 10.8698 11.11 9.77982 11.11ZM9.77982 8.66003C9.51982 8.66003 9.2998 8.87005 9.2998 9.14005C9.2998 9.41005 9.50982 9.62003 9.77982 9.62003C10.0498 9.62003 10.2598 9.41005 10.2598 9.14005C10.2598 8.87005 10.0398 8.66003 9.77982 8.66003Z" fill="white"/>
<path d="M16.3198 16.84C15.2298 16.84 14.3398 15.95 14.3398 14.86C14.3398 13.77 15.2298 12.88 16.3198 12.88C17.4098 12.88 18.2998 13.77 18.2998 14.86C18.2998 15.95 17.4098 16.84 16.3198 16.84ZM16.3198 14.39C16.0598 14.39 15.8398 14.6 15.8398 14.87C15.8398 15.14 16.0498 15.35 16.3198 15.35C16.5898 15.35 16.7998 15.14 16.7998 14.87C16.7998 14.6 16.5898 14.39 16.3198 14.39Z" fill="white"/>
<path d="M12.7998 22.75C6.8698 22.75 2.0498 17.93 2.0498 12C2.0498 6.07 6.8698 1.25 12.7998 1.25C18.7298 1.25 23.5498 6.07 23.5498 12C23.5498 17.93 18.7298 22.75 12.7998 22.75ZM12.7998 2.75C7.6998 2.75 3.5498 6.9 3.5498 12C3.5498 17.1 7.6998 21.25 12.7998 21.25C17.8998 21.25 22.0498 17.1 22.0498 12C22.0498 6.9 17.8998 2.75 12.7998 2.75Z" fill="white"/>
</svg>
