<svg width="25" height="24" viewBox="0 0 25 24" fill="none" xmlns="http://www.w3.org/2000/svg">
<path d="M11.7004 22.75C10.9104 22.75 10.1604 22.34 9.64044 21.64L8.62042 20.3C8.41042 20.02 8.13044 19.86 7.83044 19.84C7.54044 19.82 7.23047 19.96 6.98047 20.21C6.12047 21.13 5.28042 21.57 4.49042 21.55C3.95042 21.53 3.48042 21.29 3.12042 20.85C3.08042 20.8 3.04044 20.73 3.01044 20.66C2.62044 19.82 2.44043 18.68 2.44043 16.97V7.05001C2.44043 5.34001 2.62044 4.21001 3.01044 3.36001C3.04044 3.30001 3.07042 3.24001 3.12042 3.19001C3.47042 2.74001 3.94047 2.50001 4.48047 2.47001C5.28047 2.44001 6.13046 2.90001 6.97046 3.80001C7.22046 4.07001 7.52043 4.20001 7.82043 4.18001C8.12043 4.16001 8.40041 4.00001 8.61041 3.72001L9.63043 2.37001C10.1504 1.67001 10.9004 1.26001 11.6904 1.26001C12.4804 1.26001 13.2304 1.67001 13.7504 2.37001L14.7604 3.71001C14.9704 4.00001 15.2604 4.16001 15.5704 4.18001C15.8604 4.20001 16.1704 4.06001 16.4204 3.80001C17.2404 2.92001 18.0504 2.47001 18.8304 2.47001C19.3904 2.47001 19.9104 2.72001 20.2704 3.19001C20.3104 3.24001 20.3504 3.30001 20.3804 3.37001C20.7704 4.21001 20.9504 5.35001 20.9504 7.06001V16.98C20.9504 18.69 20.7704 19.82 20.3804 20.67C20.3404 20.76 20.2905 20.84 20.2205 20.91C19.9105 21.31 19.4004 21.56 18.8304 21.56C18.0504 21.56 17.2404 21.11 16.4204 20.23C16.1804 19.97 15.8504 19.83 15.5704 19.85C15.2604 19.87 14.9804 20.03 14.7604 20.32L13.7504 21.66C13.2404 22.34 12.4904 22.75 11.7004 22.75ZM7.78046 18.33C7.82046 18.33 7.87046 18.33 7.91046 18.33C8.65046 18.37 9.34043 18.76 9.81042 19.39L10.8304 20.74C11.3204 21.4 12.0604 21.4 12.5504 20.75L13.5604 19.41C14.0404 18.77 14.7405 18.39 15.4805 18.35C16.2205 18.31 16.9604 18.62 17.5004 19.2C18.2404 19.99 18.6904 20.05 18.8104 20.05C18.8904 20.05 18.9605 20.03 19.0305 19.97C19.3105 19.34 19.4304 18.39 19.4304 16.97V7.05001C19.4304 5.65001 19.3005 4.70001 19.0305 4.07001C18.9505 3.98001 18.8704 3.97001 18.8104 3.97001C18.6904 3.97001 18.2404 4.03001 17.5004 4.82001C16.9604 5.40001 16.2205 5.71001 15.4805 5.67001C14.7305 5.63001 14.0304 5.24001 13.5504 4.61001L12.5405 3.27001C12.0505 2.61001 11.3104 2.61001 10.8204 3.27001L9.80042 4.63001C9.33042 5.26001 8.64045 5.64001 7.90045 5.68001C7.16045 5.72001 6.42043 5.41001 5.88043 4.84001C5.27043 4.18001 4.80047 3.96001 4.54047 3.97001C4.48047 3.97001 4.41044 3.99001 4.33044 4.07001C4.06044 4.70001 3.93042 5.65001 3.93042 7.05001V16.97C3.93042 18.38 4.06044 19.33 4.33044 19.96C4.42044 20.04 4.48047 20.05 4.54047 20.06C4.79047 20.07 5.26042 19.85 5.87042 19.2C6.40042 18.63 7.09046 18.33 7.78046 18.33Z" fill="white"/>
<path d="M16.2002 11H8.2002C7.7902 11 7.4502 10.66 7.4502 10.25C7.4502 9.84 7.7902 9.5 8.2002 9.5H16.2002C16.6102 9.5 16.9502 9.84 16.9502 10.25C16.9502 10.66 16.6102 11 16.2002 11Z" fill="white"/>
<path d="M14.2002 14.5H8.2002C7.7902 14.5 7.4502 14.16 7.4502 13.75C7.4502 13.34 7.7902 13 8.2002 13H14.2002C14.6102 13 14.9502 13.34 14.9502 13.75C14.9502 14.16 14.6102 14.5 14.2002 14.5Z" fill="white"/>
</svg>
