<svg width="25" height="24" viewBox="0 0 25 24" fill="none" xmlns="http://www.w3.org/2000/svg">
<path d="M19.8199 11.75H16.3999C15.9899 11.75 15.6499 11.41 15.6499 11V4.01C15.6499 3.27 15.9399 2.58 16.4599 2.06C16.9799 1.54 17.6699 1.25 18.4099 1.25H18.4199C19.6699 1.26 20.8499 1.75 21.7499 2.64C22.6499 3.55 23.1399 4.75 23.1399 6V8.42C23.1499 10.41 21.8099 11.75 19.8199 11.75ZM17.1499 10.25H19.8199C20.9799 10.25 21.6499 9.58 21.6499 8.42V6C21.6499 5.14 21.3099 4.32 20.6999 3.7C20.0899 3.1 19.2799 2.76 18.4199 2.75C18.4199 2.75 18.4199 2.75 18.4099 2.75C18.0799 2.75 17.7599 2.88 17.5199 3.12C17.2799 3.36 17.1499 3.67 17.1499 4.01V10.25Z" fill="white"/>
<path d="M9.39966 23.33C8.92966 23.33 8.48967 23.15 8.15967 22.81L6.49963 21.14C6.40963 21.05 6.26968 21.04 6.16968 21.12L4.45966 22.4C3.92966 22.8 3.22964 22.87 2.62964 22.57C2.02964 22.27 1.65967 21.67 1.65967 21V6C1.65967 2.98 3.38967 1.25 6.40967 1.25H18.4097C18.8197 1.25 19.1597 1.59 19.1597 2C19.1597 2.41 18.8197 2.75 18.4097 2.75C17.7197 2.75 17.1597 3.31 17.1597 4V21C17.1597 21.67 16.7896 22.27 16.1896 22.57C15.5996 22.87 14.8897 22.8 14.3597 22.4L12.6497 21.12C12.5497 21.04 12.4097 21.06 12.3297 21.14L10.6497 22.82C10.3097 23.15 9.86966 23.33 9.39966 23.33ZM6.30963 19.57C6.76963 19.57 7.21963 19.74 7.55963 20.09L9.21967 21.76C9.27967 21.82 9.35966 21.83 9.39966 21.83C9.43966 21.83 9.51965 21.82 9.57965 21.76L11.2596 20.08C11.8796 19.46 12.8597 19.4 13.5497 19.93L15.2496 21.2C15.3596 21.28 15.4596 21.25 15.5096 21.22C15.5596 21.19 15.6497 21.13 15.6497 21V4C15.6497 3.55 15.7596 3.12 15.9496 2.75H6.39966C4.17966 2.75 3.14966 3.78 3.14966 6V21C3.14966 21.14 3.23967 21.2 3.28967 21.23C3.34967 21.26 3.44968 21.28 3.54968 21.2L5.25964 19.92C5.56964 19.69 5.93963 19.57 6.30963 19.57Z" fill="white"/>
</svg>
