<svg width="25" height="24" viewBox="0 0 25 24" fill="none" xmlns="http://www.w3.org/2000/svg">
<path d="M12.6702 21.98C11.2602 21.98 9.84019 21.44 8.77019 20.37L4.24019 15.84C3.14019 14.74 2.56019 13.22 2.63019 11.67L2.87019 6.66002C2.98019 4.27002 4.87019 2.38002 7.27019 2.26002L12.2702 2.02002C13.8302 1.95002 15.3402 2.53002 16.4402 3.63002L20.9702 8.16002C23.1202 10.31 23.1202 13.82 20.9702 15.97L16.5802 20.36C15.5002 21.44 14.0902 21.98 12.6702 21.98ZM5.30019 14.77L9.83019 19.3C11.4002 20.87 13.9502 20.87 15.5202 19.3L19.9102 14.91C21.4802 13.34 21.4802 10.79 19.9102 9.22002L15.3702 4.70002C14.5702 3.90002 13.4802 3.48002 12.3302 3.53002L7.33019 3.77002C5.71019 3.84002 4.44019 5.11002 4.36019 6.73002L4.12019 11.74C4.07019 12.86 4.50019 13.97 5.30019 14.77Z" fill="white"/>
<path d="M10.1001 12.75C8.3101 12.75 6.8501 11.29 6.8501 9.5C6.8501 7.71 8.3101 6.25 10.1001 6.25C11.8901 6.25 13.3501 7.71 13.3501 9.5C13.3501 11.29 11.8901 12.75 10.1001 12.75ZM10.1001 7.75C9.1401 7.75 8.3501 8.54 8.3501 9.5C8.3501 10.46 9.1401 11.25 10.1001 11.25C11.0601 11.25 11.8501 10.46 11.8501 9.5C11.8501 8.54 11.0601 7.75 10.1001 7.75Z" fill="white"/>
<path d="M13.6 17.75C13.41 17.75 13.22 17.68 13.07 17.53C12.78 17.24 12.78 16.76 13.07 16.47L17.07 12.47C17.36 12.18 17.84 12.18 18.13 12.47C18.42 12.76 18.42 13.24 18.13 13.53L14.13 17.53C13.98 17.68 13.79 17.75 13.6 17.75Z" fill="white"/>
</svg>
