<svg width="25" height="24" viewBox="0 0 25 24" fill="none" xmlns="http://www.w3.org/2000/svg">
<path d="M5.6001 23.75C3.9401 23.75 2.3801 22.87 1.5401 21.44C1.0901 20.72 0.850098 19.87 0.850098 19C0.850098 16.38 2.9801 14.25 5.6001 14.25C8.2201 14.25 10.3501 16.38 10.3501 19C10.3501 19.87 10.1101 20.72 9.6601 21.45C8.8201 22.87 7.2601 23.75 5.6001 23.75ZM5.6001 15.75C3.8101 15.75 2.3501 17.21 2.3501 19C2.3501 19.59 2.5101 20.17 2.8201 20.67C3.4101 21.67 4.4501 22.25 5.6001 22.25C6.7501 22.25 7.7901 21.66 8.3801 20.68C8.6901 20.17 8.8501 19.6 8.8501 19C8.8501 17.21 7.3901 15.75 5.6001 15.75Z" fill="white"/>
<path d="M5.02998 20.7401C4.83998 20.7401 4.64998 20.6701 4.49998 20.5201L3.50998 19.5301C3.21998 19.2401 3.21998 18.76 3.50998 18.47C3.79998 18.18 4.27998 18.18 4.56998 18.47L5.04998 18.9501L6.64998 17.47C6.94998 17.19 7.42998 17.2101 7.70998 17.5101C7.98998 17.8101 7.96998 18.2901 7.66998 18.5701L5.53998 20.54C5.38998 20.67 5.20998 20.7401 5.02998 20.7401Z" fill="white"/>
<path d="M6.79014 7.80995C6.55014 7.80995 6.33015 7.69995 6.18015 7.49995C6.01015 7.26995 5.99014 6.96992 6.12014 6.71992C6.29014 6.37992 6.53015 6.04995 6.84015 5.74995L10.0901 2.48994C11.7501 0.839941 14.4501 0.839941 16.1101 2.48994L17.8601 4.26997C18.6001 4.99997 19.0501 5.97997 19.1001 7.01997C19.1101 7.24997 19.0201 7.46995 18.8501 7.61995C18.6801 7.76995 18.4501 7.83994 18.2301 7.79994C18.0301 7.76994 17.8201 7.75996 17.6001 7.75996H7.60014C7.36014 7.75996 7.13014 7.77995 6.90014 7.80995C6.87014 7.80995 6.83014 7.80995 6.79014 7.80995ZM8.46014 6.24995H17.4201C17.2901 5.90995 17.0801 5.59996 16.8001 5.31996L15.0401 3.53993C13.9701 2.47993 12.2201 2.47993 11.1401 3.53993L8.46014 6.24995Z" fill="white"/>
<path d="M17.6001 22.75H8.23008C7.91008 22.75 7.63008 22.55 7.52008 22.26C7.41008 21.96 7.50008 21.63 7.74008 21.43C7.98008 21.23 8.20008 20.97 8.36008 20.69C8.68008 20.18 8.84008 19.6 8.84008 19.01C8.84008 17.22 7.38008 15.76 5.59008 15.76C4.66008 15.76 3.77008 16.16 3.15008 16.87C2.94008 17.1 2.61008 17.19 2.32008 17.08C2.03008 16.97 1.83008 16.69 1.83008 16.38V12C1.83008 8.92 3.73008 6.69001 6.68008 6.32001C6.95008 6.28001 7.26008 6.25 7.58008 6.25H17.5801C17.8201 6.25 18.1301 6.26 18.4501 6.31C21.4001 6.65 23.3301 8.89 23.3301 12V17C23.3501 20.44 21.0401 22.75 17.6001 22.75ZM9.78008 21.25H17.6001C20.1801 21.25 21.8501 19.58 21.8501 17V12C21.8501 9.66 20.4801 8.04998 18.2601 7.78998C18.0201 7.74998 17.8101 7.75 17.6001 7.75H7.60008C7.36008 7.75 7.13008 7.76999 6.90008 7.79999C4.70008 8.07999 3.35008 9.68 3.35008 12V14.82C4.03008 14.45 4.81008 14.25 5.60008 14.25C8.22008 14.25 10.3501 16.38 10.3501 19C10.3501 19.79 10.1501 20.57 9.78008 21.25Z" fill="white"/>
<path d="M22.6001 17.25H19.6001C18.0801 17.25 16.8501 16.02 16.8501 14.5C16.8501 12.98 18.0801 11.75 19.6001 11.75H22.6001C23.0101 11.75 23.3501 12.09 23.3501 12.5C23.3501 12.91 23.0101 13.25 22.6001 13.25H19.6001C18.9101 13.25 18.3501 13.81 18.3501 14.5C18.3501 15.19 18.9101 15.75 19.6001 15.75H22.6001C23.0101 15.75 23.3501 16.09 23.3501 16.5C23.3501 16.91 23.0101 17.25 22.6001 17.25Z" fill="white"/>
</svg>
