<svg width="25" height="24" viewBox="0 0 25 24" fill="none" xmlns="http://www.w3.org/2000/svg">
<path d="M15.1001 9.25H2.6001C2.1901 9.25 1.8501 8.91 1.8501 8.5C1.8501 8.09 2.1901 7.75 2.6001 7.75H15.1001C15.5101 7.75 15.8501 8.09 15.8501 8.5C15.8501 8.91 15.5101 9.25 15.1001 9.25Z" fill="white"/>
<path d="M8.6001 17.25H6.6001C6.1901 17.25 5.8501 16.91 5.8501 16.5C5.8501 16.09 6.1901 15.75 6.6001 15.75H8.6001C9.0101 15.75 9.3501 16.09 9.3501 16.5C9.3501 16.91 9.0101 17.25 8.6001 17.25Z" fill="white"/>
<path d="M15.1001 17.25H11.1001C10.6901 17.25 10.3501 16.91 10.3501 16.5C10.3501 16.09 10.6901 15.75 11.1001 15.75H15.1001C15.5101 15.75 15.8501 16.09 15.8501 16.5C15.8501 16.91 15.5101 17.25 15.1001 17.25Z" fill="white"/>
<path d="M18.1601 21.25H7.0401C3.0601 21.25 1.8501 20.05 1.8501 16.11V7.89C1.8501 3.95 3.0601 2.75 7.0401 2.75H15.1001C15.5101 2.75 15.8501 3.09 15.8501 3.5C15.8501 3.91 15.5101 4.25 15.1001 4.25H7.0401C3.9001 4.25 3.3501 4.79 3.3501 7.89V16.1C3.3501 19.2 3.9001 19.74 7.0401 19.74H18.1501C21.2901 19.74 21.8401 19.2 21.8401 16.1V14.02C21.8401 13.61 22.1801 13.27 22.5901 13.27C23.0001 13.27 23.3401 13.61 23.3401 14.02V16.1C23.3501 20.05 22.1401 21.25 18.1601 21.25Z" fill="white"/>
<path d="M20.6001 10.25C20.1901 10.25 19.8501 9.91 19.8501 9.5V3.5C19.8501 3.2 20.0301 2.92 20.3101 2.81C20.5901 2.7 20.9101 2.76 21.1301 2.97L23.1301 4.97C23.4201 5.26 23.4201 5.74 23.1301 6.03C22.8401 6.32 22.3601 6.32 22.0701 6.03L21.3501 5.31V9.5C21.3501 9.91 21.0101 10.25 20.6001 10.25Z" fill="white"/>
<path d="M18.6 6.25C18.41 6.25 18.22 6.18 18.07 6.03C17.78 5.74 17.78 5.26 18.07 4.97L20.07 2.97C20.36 2.68 20.84 2.68 21.13 2.97C21.42 3.26 21.42 3.74 21.13 4.03L19.13 6.03C18.98 6.18 18.79 6.25 18.6 6.25Z" fill="white"/>
</svg>
