<svg width="25" height="24" viewBox="0 0 25 24" fill="none" xmlns="http://www.w3.org/2000/svg">
<path d="M19.3999 13.36H2.3999C1.9899 13.36 1.6499 13.02 1.6499 12.61C1.6499 12.2 1.9899 11.86 2.3999 11.86H19.3999C19.8099 11.86 20.1499 12.2 20.1499 12.61C20.1499 13.02 19.8099 13.36 19.3999 13.36Z" fill="white"/>
<path d="M15.6199 21.75H6.17993C2.74993 21.75 1.6499 20.66 1.6499 17.27V10.28C1.6499 7.58999 2.25992 5.99999 5.35992 5.81999C5.61992 5.80999 5.88993 5.79999 6.17993 5.79999H15.6199C19.0499 5.79999 20.1499 6.88999 20.1499 10.28V17.43C20.1099 20.7 19.0099 21.75 15.6199 21.75ZM6.17993 7.29999C5.90993 7.29999 5.65993 7.30999 5.42993 7.31999C3.63993 7.42999 3.1499 7.80999 3.1499 10.28V17.27C3.1499 19.83 3.56993 20.25 6.17993 20.25H15.6199C18.1999 20.25 18.6199 19.85 18.6499 17.42V10.28C18.6499 7.71999 18.2299 7.29999 15.6199 7.29999H6.17993Z" fill="white"/>
<path d="M19.3999 18.18C19.2099 18.18 19.0199 18.11 18.8899 17.98C18.7399 17.84 18.6499 17.64 18.6499 17.43V10.28C18.6499 7.72 18.2299 7.3 15.6199 7.3H6.17993C5.90993 7.3 5.65993 7.31 5.42993 7.32C5.22993 7.33 5.02988 7.25 4.87988 7.11C4.72988 6.97 4.6499 6.77 4.6499 6.56C4.6899 3.3 5.78993 2.25 9.17993 2.25H18.6199C22.0499 2.25 23.1499 3.34 23.1499 6.73V13.72C23.1499 16.41 22.5399 18 19.4399 18.18C19.4299 18.18 19.4099 18.18 19.3999 18.18ZM6.17993 5.8H15.6199C19.0499 5.8 20.1499 6.89 20.1499 10.28V16.6C21.3099 16.39 21.6499 15.79 21.6499 13.72V6.73C21.6499 4.17 21.2299 3.75 18.6199 3.75H9.17993C6.89993 3.75 6.30993 4.06 6.17993 5.8Z" fill="white"/>
<path d="M7.36017 18.56H5.64014C5.23014 18.56 4.89014 18.22 4.89014 17.81C4.89014 17.4 5.23014 17.06 5.64014 17.06H7.36017C7.77017 17.06 8.11017 17.4 8.11017 17.81C8.11017 18.22 7.78017 18.56 7.36017 18.56Z" fill="white"/>
<path d="M12.9498 18.56H9.50977C9.09977 18.56 8.75977 18.22 8.75977 17.81C8.75977 17.4 9.09977 17.06 9.50977 17.06H12.9498C13.3598 17.06 13.6998 17.4 13.6998 17.81C13.6998 18.22 13.3698 18.56 12.9498 18.56Z" fill="white"/>
</svg>
