<svg width="25" height="24" viewBox="0 0 25 24" fill="none" xmlns="http://www.w3.org/2000/svg">
<path d="M22.3999 6.31H12.3999C11.9899 6.31 11.6499 5.97 11.6499 5.56C11.6499 5.15 11.9899 4.81 12.3999 4.81H22.3999C22.8099 4.81 23.1499 5.15 23.1499 5.56C23.1499 5.98 22.8099 6.31 22.3999 6.31Z" fill="white"/>
<path d="M20.1797 11.25H14.6297C12.4397 11.25 11.6597 10.48 11.6597 8.3V4.2C11.6597 2.02 12.4397 1.25 14.6297 1.25H20.1797C22.3697 1.25 23.1497 2.02 23.1497 4.2V8.31C23.1497 10.48 22.3697 11.25 20.1797 11.25ZM14.6197 2.75C13.2597 2.75 13.1497 2.86 13.1497 4.2V8.31C13.1497 9.65 13.2597 9.76 14.6197 9.76H20.1696C21.5296 9.76 21.6396 9.65 21.6396 8.31V4.2C21.6396 2.86 21.5296 2.75 20.1696 2.75H14.6197Z" fill="white"/>
<path d="M12.3999 17.81H2.3999C1.9899 17.81 1.6499 17.47 1.6499 17.06C1.6499 16.65 1.9899 16.31 2.3999 16.31H12.3999C12.8099 16.31 13.1499 16.65 13.1499 17.06C13.1499 17.48 12.8099 17.81 12.3999 17.81Z" fill="white"/>
<path d="M10.1797 22.75H4.62967C2.43967 22.75 1.65967 21.98 1.65967 19.8V15.7C1.65967 13.52 2.43967 12.75 4.62967 12.75H10.1797C12.3697 12.75 13.1497 13.52 13.1497 15.7V19.81C13.1497 21.98 12.3697 22.75 10.1797 22.75ZM4.61966 14.25C3.25966 14.25 3.14966 14.36 3.14966 15.7V19.81C3.14966 21.15 3.25966 21.26 4.61966 21.26H10.1696C11.5296 21.26 11.6396 21.15 11.6396 19.81V15.7C11.6396 14.36 11.5296 14.25 10.1696 14.25H4.61966Z" fill="white"/>
<path d="M15.4001 22.75C15.1301 22.75 14.8801 22.6 14.7501 22.37C14.6201 22.13 14.6201 21.85 14.7601 21.61L15.8101 19.86C16.0201 19.51 16.4801 19.39 16.8401 19.6C17.2001 19.81 17.3101 20.27 17.1001 20.63L16.8301 21.08C19.5901 20.43 21.6601 17.95 21.6601 14.99C21.6601 14.58 22.0001 14.24 22.4101 14.24C22.8201 14.24 23.1601 14.58 23.1601 14.99C23.1501 19.27 19.6701 22.75 15.4001 22.75Z" fill="white"/>
<path d="M2.3999 9.75C1.9899 9.75 1.6499 9.41 1.6499 9C1.6499 4.73 5.1299 1.25 9.3999 1.25C9.6699 1.25 9.9199 1.4 10.0499 1.63C10.1799 1.87 10.1799 2.15 10.0399 2.39L8.9899 4.14C8.7799 4.49 8.3199 4.61 7.9599 4.4C7.5999 4.19 7.48989 3.73 7.69989 3.37L7.96991 2.92C5.20991 3.57 3.13989 6.05 3.13989 9.01C3.14989 9.41 2.8099 9.75 2.3999 9.75Z" fill="white"/>
</svg>
