<svg width="25" height="24" viewBox="0 0 25 24" fill="none" xmlns="http://www.w3.org/2000/svg">
<path d="M13.8001 17.42H11.2901C9.65006 17.42 8.32006 16.04 8.32006 14.34C8.32006 13.93 8.66006 13.59 9.07006 13.59C9.48006 13.59 9.82006 13.93 9.82006 14.34C9.82006 15.21 10.4801 15.92 11.2901 15.92H13.8001C14.4501 15.92 14.9901 15.34 14.9901 14.64C14.9901 13.77 14.6801 13.6 14.1701 13.42L10.1401 12C9.36006 11.73 8.31006 11.15 8.31006 9.35999C8.31006 7.81999 9.52006 6.57999 11.0001 6.57999H13.5101C15.1501 6.57999 16.4801 7.95999 16.4801 9.65999C16.4801 10.07 16.1401 10.41 15.7301 10.41C15.3201 10.41 14.9801 10.07 14.9801 9.65999C14.9801 8.78999 14.3201 8.07999 13.5101 8.07999H11.0001C10.3501 8.07999 9.81006 8.65999 9.81006 9.35999C9.81006 10.23 10.1201 10.4 10.6301 10.58L14.6601 12C15.4401 12.27 16.4901 12.85 16.4901 14.64C16.4801 16.17 15.2801 17.42 13.8001 17.42Z" fill="white"/>
<path d="M12.3999 18.75C11.9899 18.75 11.6499 18.41 11.6499 18V6C11.6499 5.59 11.9899 5.25 12.3999 5.25C12.8099 5.25 13.1499 5.59 13.1499 6V18C13.1499 18.41 12.8099 18.75 12.3999 18.75Z" fill="white"/>
<path d="M12.3999 22.75C6.4699 22.75 1.6499 17.93 1.6499 12C1.6499 6.07 6.4699 1.25 12.3999 1.25C18.3299 1.25 23.1499 6.07 23.1499 12C23.1499 17.93 18.3299 22.75 12.3999 22.75ZM12.3999 2.75C7.2999 2.75 3.1499 6.9 3.1499 12C3.1499 17.1 7.2999 21.25 12.3999 21.25C17.4999 21.25 21.6499 17.1 21.6499 12C21.6499 6.9 17.4999 2.75 12.3999 2.75Z" fill="white"/>
</svg>
