<svg width="25" height="24" viewBox="0 0 25 24" fill="none" xmlns="http://www.w3.org/2000/svg">
<path d="M17.9402 22.75H7.83019C7.51019 22.75 7.23019 22.55 7.12019 22.26C7.01019 21.96 7.10019 21.63 7.34019 21.43C7.58019 21.23 7.8002 20.97 7.9602 20.69C8.2802 20.18 8.44019 19.6 8.44019 19.01C8.44019 17.22 6.98019 15.76 5.19019 15.76C4.45019 15.76 3.75019 16.01 3.16019 16.48C2.93019 16.66 2.63019 16.69 2.37019 16.57C2.11019 16.45 1.9502 16.18 1.9502 15.89V11.52C1.9502 9.03002 3.9702 7.01001 6.4602 7.01001H17.9402C20.4302 7.01001 22.4502 9.03002 22.4502 11.52V12.96C22.4502 13.37 22.1102 13.71 21.7002 13.71H19.6802C19.3302 13.71 19.0102 13.84 18.7802 14.08L18.7702 14.09C18.4902 14.36 18.3602 14.73 18.3902 15.11C18.4502 15.77 19.0802 16.3 19.8002 16.3H21.7002C22.1102 16.3 22.4502 16.64 22.4502 17.05V18.24C22.4502 20.73 20.4302 22.75 17.9402 22.75ZM9.3802 21.25H17.9402C19.6002 21.25 20.9502 19.9 20.9502 18.24V17.8H19.8002C18.2902 17.8 17.0102 16.68 16.8902 15.24C16.8102 14.42 17.1102 13.61 17.7102 13.02C18.2302 12.49 18.9302 12.2 19.6802 12.2H20.9502V11.51C20.9502 9.85001 19.6002 8.5 17.9402 8.5H6.4602C4.8002 8.5 3.4502 9.85001 3.4502 11.51V14.59C4.0102 14.37 4.6002 14.25 5.2002 14.25C7.8202 14.25 9.9502 16.38 9.9502 19C9.9502 19.79 9.7502 20.57 9.3802 21.25Z" fill="white"/>
<path d="M2.7002 13.16C2.2902 13.16 1.9502 12.82 1.9502 12.41V7.84006C1.9502 6.35006 2.8902 5.00001 4.2802 4.47001L12.2202 1.47001C13.0302 1.16001 13.9502 1.27005 14.6602 1.77005C15.3802 2.27005 15.8002 3.08005 15.8002 3.95005V7.75003C15.8002 8.16003 15.4602 8.50003 15.0502 8.50003C14.6402 8.50003 14.3002 8.16003 14.3002 7.75003V3.95005C14.3002 3.57005 14.1202 3.22003 13.8002 3.00003C13.4802 2.78003 13.1002 2.73003 12.7402 2.87003L4.80019 5.87003C3.99019 6.18003 3.44019 6.97006 3.44019 7.84006V12.41C3.45019 12.83 3.1102 13.16 2.7002 13.16Z" fill="white"/>
<path d="M19.8002 17.7999C18.2902 17.7999 17.0102 16.6799 16.8902 15.2399C16.8102 14.4099 17.1102 13.5999 17.7102 13.0099C18.2202 12.4899 18.9202 12.2 19.6702 12.2H21.7502C22.7402 12.23 23.5002 13.0099 23.5002 13.9699V16.03C23.5002 16.99 22.7402 17.7699 21.7802 17.7999H19.8002ZM21.7302 13.7H19.6802C19.3302 13.7 19.0102 13.8299 18.7802 14.0699C18.4902 14.3499 18.3502 14.7299 18.3902 15.1099C18.4502 15.7699 19.0802 16.2999 19.8002 16.2999H21.7602C21.8902 16.2999 22.0102 16.18 22.0102 16.03V13.9699C22.0102 13.8199 21.8902 13.71 21.7302 13.7Z" fill="white"/>
<path d="M14.2002 12.75H7.2002C6.7902 12.75 6.4502 12.41 6.4502 12C6.4502 11.59 6.7902 11.25 7.2002 11.25H14.2002C14.6102 11.25 14.9502 11.59 14.9502 12C14.9502 12.41 14.6102 12.75 14.2002 12.75Z" fill="white"/>
<path d="M5.2002 23.75C3.5402 23.75 1.9802 22.87 1.1402 21.44C0.690198 20.72 0.450195 19.87 0.450195 19C0.450195 17.54 1.10019 16.19 2.23019 15.29C3.07019 14.62 4.1302 14.25 5.2002 14.25C7.8202 14.25 9.9502 16.38 9.9502 19C9.9502 19.87 9.71019 20.72 9.26019 21.45C9.02019 21.87 8.6902 22.25 8.3102 22.57C7.4802 23.33 6.3702 23.75 5.2002 23.75ZM5.2002 15.75C4.4602 15.75 3.7602 16 3.1702 16.47C2.4002 17.08 1.9502 18.01 1.9502 19C1.9502 19.59 2.1102 20.17 2.4202 20.67C3.0102 21.67 4.0502 22.25 5.2002 22.25C5.9902 22.25 6.75019 21.96 7.33019 21.44C7.59019 21.22 7.81019 20.96 7.97019 20.68C8.29019 20.17 8.4502 19.59 8.4502 19C8.4502 17.21 6.9902 15.75 5.2002 15.75Z" fill="white"/>
<path d="M6.69019 19.73H3.7002C3.2902 19.73 2.9502 19.39 2.9502 18.98C2.9502 18.57 3.2902 18.23 3.7002 18.23H6.69019C7.10019 18.23 7.44019 18.57 7.44019 18.98C7.44019 19.39 7.11019 19.73 6.69019 19.73Z" fill="white"/>
<path d="M5.2002 21.26C4.7902 21.26 4.4502 20.92 4.4502 20.51V17.52C4.4502 17.11 4.7902 16.77 5.2002 16.77C5.6102 16.77 5.9502 17.11 5.9502 17.52V20.51C5.9502 20.93 5.6102 21.26 5.2002 21.26Z" fill="white"/>
</svg>
