<svg width="25" height="24" viewBox="0 0 25 24" fill="none" xmlns="http://www.w3.org/2000/svg">
<path d="M17.6001 20.75H12.6001C12.1901 20.75 11.8501 20.41 11.8501 20C11.8501 19.59 12.1901 19.25 12.6001 19.25H17.6001C20.4601 19.25 21.8501 17.86 21.8501 15V9C21.8501 6.14 20.4601 4.75 17.6001 4.75H7.6001C4.7401 4.75 3.3501 6.14 3.3501 9V11C3.3501 11.41 3.0101 11.75 2.6001 11.75C2.1901 11.75 1.8501 11.41 1.8501 11V9C1.8501 5.35 3.9501 3.25 7.6001 3.25H17.6001C21.2501 3.25 23.3501 5.35 23.3501 9V15C23.3501 18.65 21.2501 20.75 17.6001 20.75Z" fill="white"/>
<path d="M12.6001 15.25C10.8101 15.25 9.3501 13.79 9.3501 12C9.3501 10.21 10.8101 8.75 12.6001 8.75C14.3901 8.75 15.8501 10.21 15.8501 12C15.8501 13.79 14.3901 15.25 12.6001 15.25ZM12.6001 10.25C11.6401 10.25 10.8501 11.04 10.8501 12C10.8501 12.96 11.6401 13.75 12.6001 13.75C13.5601 13.75 14.3501 12.96 14.3501 12C14.3501 11.04 13.5601 10.25 12.6001 10.25Z" fill="white"/>
<path d="M19.1001 15.25C18.6901 15.25 18.3501 14.91 18.3501 14.5V9.5C18.3501 9.09 18.6901 8.75 19.1001 8.75C19.5101 8.75 19.8501 9.09 19.8501 9.5V14.5C19.8501 14.91 19.5101 15.25 19.1001 15.25Z" fill="white"/>
<path d="M9.1001 18.69C8.6901 18.69 8.3501 18.35 8.3501 17.94V16.66C8.3501 16.44 8.17012 16.25 7.94012 16.25H2.6001C2.1901 16.25 1.8501 15.91 1.8501 15.5C1.8501 15.09 2.1901 14.75 2.6001 14.75H7.94012C8.99012 14.75 9.8501 15.61 9.8501 16.66V17.94C9.8501 18.35 9.5101 18.69 9.1001 18.69Z" fill="white"/>
<path d="M3.82004 17.4699C3.63004 17.4699 3.44007 17.4 3.29007 17.25L2.07004 16.03C1.78004 15.74 1.78004 15.2599 2.07004 14.9699L3.29007 13.75C3.58007 13.46 4.06007 13.46 4.35007 13.75C4.64007 14.04 4.64007 14.52 4.35007 14.81L3.66007 15.5L4.35007 16.19C4.64007 16.48 4.64007 16.96 4.35007 17.25C4.20007 17.4 4.01004 17.4699 3.82004 17.4699Z" fill="white"/>
<path d="M9.1001 21.5301H3.76007C2.71007 21.5301 1.8501 20.6701 1.8501 19.6201V18.3401C1.8501 17.9301 2.1901 17.5901 2.6001 17.5901C3.0101 17.5901 3.3501 17.9301 3.3501 18.3401V19.6201C3.3501 19.8401 3.53007 20.0301 3.76007 20.0301H9.1001C9.5101 20.0301 9.8501 20.3701 9.8501 20.7801C9.8501 21.1901 9.5101 21.5301 9.1001 21.5301Z" fill="white"/>
<path d="M7.87985 22.75C7.68985 22.75 7.49982 22.68 7.34982 22.53C7.05982 22.24 7.05982 21.7599 7.34982 21.4699L8.03983 20.78L7.34982 20.09C7.05982 19.8 7.05982 19.32 7.34982 19.03C7.63982 18.74 8.11982 18.74 8.40982 19.03L9.62985 20.25C9.91985 20.54 9.91985 21.02 9.62985 21.31L8.40982 22.53C8.26982 22.68 8.06985 22.75 7.87985 22.75Z" fill="white"/>
</svg>
