<svg width="25" height="24" viewBox="0 0 25 24" fill="none" xmlns="http://www.w3.org/2000/svg">
<path d="M17.2002 21.25H7.2002C3.5502 21.25 1.4502 19.15 1.4502 15.5V8.5C1.4502 4.85 3.5502 2.75 7.2002 2.75H17.2002C20.8502 2.75 22.9502 4.85 22.9502 8.5V15.5C22.9502 19.15 20.8502 21.25 17.2002 21.25ZM7.2002 4.25C4.3402 4.25 2.9502 5.64 2.9502 8.5V15.5C2.9502 18.36 4.3402 19.75 7.2002 19.75H17.2002C20.0602 19.75 21.4502 18.36 21.4502 15.5V8.5C21.4502 5.64 20.0602 4.25 17.2002 4.25H7.2002Z" fill="white"/>
<path d="M12.2002 15.75C10.1302 15.75 8.4502 14.07 8.4502 12C8.4502 9.93 10.1302 8.25 12.2002 8.25C14.2702 8.25 15.9502 9.93 15.9502 12C15.9502 14.07 14.2702 15.75 12.2002 15.75ZM12.2002 9.75C10.9602 9.75 9.9502 10.76 9.9502 12C9.9502 13.24 10.9602 14.25 12.2002 14.25C13.4402 14.25 14.4502 13.24 14.4502 12C14.4502 10.76 13.4402 9.75 12.2002 9.75Z" fill="white"/>
<path d="M5.7002 15.25C5.2902 15.25 4.9502 14.91 4.9502 14.5V9.5C4.9502 9.09 5.2902 8.75 5.7002 8.75C6.1102 8.75 6.4502 9.09 6.4502 9.5V14.5C6.4502 14.91 6.1102 15.25 5.7002 15.25Z" fill="white"/>
<path d="M18.7002 15.25C18.2902 15.25 17.9502 14.91 17.9502 14.5V9.5C17.9502 9.09 18.2902 8.75 18.7002 8.75C19.1102 8.75 19.4502 9.09 19.4502 9.5V14.5C19.4502 14.91 19.1102 15.25 18.7002 15.25Z" fill="white"/>
</svg>
