<svg width="25" height="24" viewBox="0 0 25 24" fill="none" xmlns="http://www.w3.org/2000/svg">
<path d="M13.8498 16.25H11.9698C10.6398 16.25 9.5498 15.13 9.5498 13.75C9.5498 13.34 9.8898 13 10.2998 13C10.7098 13 11.0498 13.34 11.0498 13.75C11.0498 14.3 11.4598 14.75 11.9698 14.75H13.8498C14.2398 14.75 14.5498 14.4 14.5498 13.97C14.5498 13.43 14.3998 13.35 14.0598 13.23L11.0498 12.18C10.4098 11.96 9.5498 11.49 9.5498 10.02C9.5498 8.76999 10.5398 7.73999 11.7498 7.73999H13.6298C14.9598 7.73999 16.0498 8.85999 16.0498 10.24C16.0498 10.65 15.7098 10.99 15.2998 10.99C14.8898 10.99 14.5498 10.65 14.5498 10.24C14.5498 9.68999 14.1398 9.23999 13.6298 9.23999H11.7498C11.3598 9.23999 11.0498 9.58999 11.0498 10.02C11.0498 10.56 11.1998 10.64 11.5398 10.76L14.5498 11.81C15.1898 12.03 16.0498 12.5 16.0498 13.97C16.0498 15.23 15.0598 16.25 13.8498 16.25Z" fill="white"/>
<path d="M12.7998 17.25C12.3898 17.25 12.0498 16.91 12.0498 16.5V7.5C12.0498 7.09 12.3898 6.75 12.7998 6.75C13.2098 6.75 13.5498 7.09 13.5498 7.5V16.5C13.5498 16.91 13.2098 17.25 12.7998 17.25Z" fill="white"/>
<path d="M12.7998 22.75C6.8698 22.75 2.0498 17.93 2.0498 12C2.0498 6.07 6.8698 1.25 12.7998 1.25C13.2098 1.25 13.5498 1.59 13.5498 2C13.5498 2.41 13.2098 2.75 12.7998 2.75C7.6998 2.75 3.5498 6.9 3.5498 12C3.5498 17.1 7.6998 21.25 12.7998 21.25C17.8998 21.25 22.0498 17.1 22.0498 12C22.0498 11.59 22.3898 11.25 22.7998 11.25C23.2098 11.25 23.5498 11.59 23.5498 12C23.5498 17.93 18.7298 22.75 12.7998 22.75Z" fill="white"/>
<path d="M21.7998 7.75H17.7998C17.3898 7.75 17.0498 7.41 17.0498 7V3C17.0498 2.59 17.3898 2.25 17.7998 2.25C18.2098 2.25 18.5498 2.59 18.5498 3V6.25H21.7998C22.2098 6.25 22.5498 6.59 22.5498 7C22.5498 7.41 22.2098 7.75 21.7998 7.75Z" fill="white"/>
<path d="M17.7997 7.75C17.6097 7.75 17.4197 7.68 17.2697 7.53C16.9797 7.24 16.9797 6.76 17.2697 6.47L22.2697 1.47C22.5597 1.18 23.0397 1.18 23.3297 1.47C23.6197 1.76 23.6197 2.24 23.3297 2.53L18.3297 7.53C18.1797 7.68 17.9897 7.75 17.7997 7.75Z" fill="white"/>
</svg>
