<svg width="25" height="24" viewBox="0 0 25 24" fill="none" xmlns="http://www.w3.org/2000/svg">
<path d="M17.2002 21.25H7.2002C3.5502 21.25 1.4502 19.15 1.4502 15.5V8.5C1.4502 4.85 3.5502 2.75 7.2002 2.75H17.2002C20.8502 2.75 22.9502 4.85 22.9502 8.5V15.5C22.9502 19.15 20.8502 21.25 17.2002 21.25ZM7.2002 4.25C4.3402 4.25 2.9502 5.64 2.9502 8.5V15.5C2.9502 18.36 4.3402 19.75 7.2002 19.75H17.2002C20.0602 19.75 21.4502 18.36 21.4502 15.5V8.5C21.4502 5.64 20.0602 4.25 17.2002 4.25H7.2002Z" fill="white"/>
<path d="M12.2002 15.75C10.1302 15.75 8.4502 14.07 8.4502 12C8.4502 9.93 10.1302 8.25 12.2002 8.25C14.2702 8.25 15.9502 9.93 15.9502 12C15.9502 14.07 14.2702 15.75 12.2002 15.75ZM12.2002 9.75C10.9602 9.75 9.9502 10.76 9.9502 12C9.9502 13.24 10.9602 14.25 12.2002 14.25C13.4402 14.25 14.4502 13.24 14.4502 12C14.4502 10.76 13.4402 9.75 12.2002 9.75Z" fill="white"/>
<path d="M19.2002 7.75H16.2002C15.7902 7.75 15.4502 7.41 15.4502 7C15.4502 6.59 15.7902 6.25 16.2002 6.25H19.2002C19.6102 6.25 19.9502 6.59 19.9502 7C19.9502 7.41 19.6102 7.75 19.2002 7.75Z" fill="white"/>
<path d="M8.2002 17.75H5.2002C4.7902 17.75 4.4502 17.41 4.4502 17C4.4502 16.59 4.7902 16.25 5.2002 16.25H8.2002C8.6102 16.25 8.9502 16.59 8.9502 17C8.9502 17.41 8.6102 17.75 8.2002 17.75Z" fill="white"/>
</svg>
