<svg width="25" height="24" viewBox="0 0 25 24" fill="none" xmlns="http://www.w3.org/2000/svg">
<path d="M10.9399 21.94C10.7099 21.94 10.4899 21.84 10.3399 21.64L9.32993 20.29C9.11993 20.01 8.83995 19.85 8.53995 19.83C8.22995 19.81 7.93992 19.95 7.69992 20.2C6.24992 21.75 5.14993 21.62 4.61993 21.42C4.07993 21.21 3.16992 20.52 3.16992 18.3V7.04001C3.16992 2.60001 4.44992 1.25 8.63992 1.25H16.1899C20.3799 1.25 21.6599 2.60001 21.6599 7.04001V11.3C21.6599 11.71 21.3199 12.05 20.9099 12.05C20.4999 12.05 20.1599 11.71 20.1599 11.3V7.04001C20.1599 3.43001 19.5299 2.75 16.1899 2.75H8.63992C5.29992 2.75 4.66992 3.43001 4.66992 7.04001V18.3C4.66992 19.35 4.92992 19.93 5.16992 20.02C5.34992 20.09 5.83995 19.99 6.59995 19.18C7.14995 18.6 7.86993 18.29 8.61993 18.33C9.35993 18.37 10.0599 18.76 10.5299 19.39L11.5499 20.74C11.7999 21.07 11.7299 21.54 11.3999 21.79C11.2499 21.9 11.0899 21.94 10.9399 21.94Z" fill="white"/>
<path d="M16.3999 7.75H8.3999C7.9899 7.75 7.6499 7.41 7.6499 7C7.6499 6.59 7.9899 6.25 8.3999 6.25H16.3999C16.8099 6.25 17.1499 6.59 17.1499 7C17.1499 7.41 16.8099 7.75 16.3999 7.75Z" fill="white"/>
<path d="M15.3999 11.75H9.3999C8.9899 11.75 8.6499 11.41 8.6499 11C8.6499 10.59 8.9899 10.25 9.3999 10.25H15.3999C15.8099 10.25 16.1499 10.59 16.1499 11C16.1499 11.41 15.8099 11.75 15.3999 11.75Z" fill="white"/>
<path d="M15.22 21.78C14.84 21.78 14.48 21.64 14.22 21.38C13.91 21.07 13.77 20.62 13.84 20.15L14.03 18.8C14.08 18.45 14.29 18.03 14.54 17.78L18.0799 14.24C18.5599 13.76 19.03 13.51 19.54 13.46C20.16 13.4 20.7799 13.66 21.3599 14.24C21.9399 14.82 22.1999 15.43 22.1399 16.06C22.0899 16.56 21.8299 17.04 21.3599 17.52L17.82 21.06C17.57 21.31 17.1499 21.52 16.7999 21.57L15.4499 21.76C15.3699 21.77 15.3 21.78 15.22 21.78ZM19.7099 14.95C19.6999 14.95 19.69 14.95 19.68 14.95C19.54 14.96 19.3499 15.09 19.1399 15.3L15.6 18.84C15.57 18.87 15.5199 18.97 15.5199 19.01L15.34 20.26L16.59 20.08C16.63 20.07 16.7299 20.02 16.7599 19.99L20.2999 16.45C20.5099 16.23 20.64 16.05 20.65 15.91C20.67 15.71 20.4699 15.47 20.2999 15.3C20.1399 15.14 19.9099 14.95 19.7099 14.95Z" fill="white"/>
<path d="M20.32 18.2499C20.25 18.2499 20.18 18.2399 20.12 18.2199C18.8 17.8499 17.75 16.7999 17.38 15.4799C17.27 15.0799 17.5 14.6699 17.9 14.5499C18.3 14.4399 18.71 14.6699 18.82 15.0699C19.05 15.8899 19.7 16.5399 20.52 16.7699C20.92 16.8799 21.15 17.2999 21.04 17.6999C20.95 18.0299 20.65 18.2499 20.32 18.2499Z" fill="white"/>
</svg>
