<svg width="25" height="24" viewBox="0 0 25 24" fill="none" xmlns="http://www.w3.org/2000/svg">
<path d="M12.6001 22.75C11.8201 22.75 11.0601 22.35 10.5401 21.65L9.5301 20.3C9.3201 20.02 9.0401 19.86 8.7401 19.84C8.4401 19.83 8.1401 19.96 7.9001 20.21L7.3301 19.7L7.8801 20.21C6.4401 21.75 5.3301 21.63 4.8001 21.42C4.2601 21.21 3.3501 20.52 3.3501 18.3V7.04C3.3501 2.6 4.6301 1.25 8.8201 1.25H16.3801C20.5701 1.25 21.8501 2.6 21.8501 7.04V18.3C21.8501 20.51 20.9401 21.2 20.4001 21.42C19.8701 21.63 18.7701 21.75 17.3201 20.21C17.0801 19.95 16.7901 19.81 16.4701 19.84C16.1701 19.86 15.8801 20.02 15.6701 20.3L14.6601 21.65C14.1401 22.35 13.3801 22.75 12.6001 22.75ZM8.6801 18.33C8.7201 18.33 8.7701 18.33 8.8101 18.33C9.5501 18.37 10.2501 18.76 10.7201 19.39L11.7301 20.74C12.2201 21.39 12.9701 21.39 13.4601 20.74L14.4701 19.39C14.9501 18.76 15.6401 18.37 16.3901 18.33C17.1301 18.29 17.8701 18.6 18.4101 19.18C19.1701 19.99 19.6701 20.09 19.8401 20.02C20.0801 19.92 20.3401 19.34 20.3401 18.3V7.04C20.3401 3.43 19.7101 2.75 16.3701 2.75H8.8201C5.4801 2.75 4.8501 3.43 4.8501 7.04V18.3C4.8501 19.35 5.1101 19.93 5.3501 20.02C5.5201 20.09 6.0201 19.99 6.7801 19.18C7.3201 18.63 7.9901 18.33 8.6801 18.33Z" fill="white"/>
<path d="M16.6001 7.75H8.6001C8.1901 7.75 7.8501 7.41 7.8501 7C7.8501 6.59 8.1901 6.25 8.6001 6.25H16.6001C17.0101 6.25 17.3501 6.59 17.3501 7C17.3501 7.41 17.0101 7.75 16.6001 7.75Z" fill="white"/>
<path d="M15.6001 11.75H9.6001C9.1901 11.75 8.8501 11.41 8.8501 11C8.8501 10.59 9.1901 10.25 9.6001 10.25H15.6001C16.0101 10.25 16.3501 10.59 16.3501 11C16.3501 11.41 16.0101 11.75 15.6001 11.75Z" fill="white"/>
</svg>
