<svg width="25" height="24" viewBox="0 0 25 24" fill="none" xmlns="http://www.w3.org/2000/svg">
<path d="M19.6202 11.75H16.2002C15.7902 11.75 15.4502 11.41 15.4502 11V4.01C15.4502 3.27 15.7402 2.58 16.2602 2.06C16.7802 1.54 17.4702 1.25 18.2102 1.25H18.2202C19.4702 1.26 20.6502 1.75 21.5502 2.64C22.4502 3.55 22.9402 4.75 22.9402 6V8.42C22.9502 10.41 21.6102 11.75 19.6202 11.75ZM16.9502 10.25H19.6202C20.7802 10.25 21.4502 9.58 21.4502 8.42V6C21.4502 5.14 21.1102 4.32 20.5002 3.7C19.8902 3.1 19.0702 2.76 18.2202 2.75C18.2202 2.75 18.2202 2.75 18.2102 2.75C17.8802 2.75 17.5602 2.88 17.3202 3.12C17.0802 3.36 16.9502 3.67 16.9502 4.01V10.25Z" fill="white"/>
<path d="M9.2002 23.33C8.7302 23.33 8.2902 23.15 7.9602 22.81L6.3002 21.14C6.2102 21.05 6.0702 21.04 5.9702 21.12L4.2502 22.4C3.7202 22.8 3.0202 22.87 2.4202 22.57C1.8202 22.27 1.4502 21.67 1.4502 21V6C1.4502 2.98 3.1802 1.25 6.2002 1.25H18.2002C18.6102 1.25 18.9502 1.59 18.9502 2C18.9502 2.41 18.6102 2.75 18.2002 2.75C17.5102 2.75 16.9502 3.31 16.9502 4V21C16.9502 21.67 16.5802 22.27 15.9802 22.57C15.3802 22.87 14.6802 22.81 14.1502 22.41L12.4402 21.13C12.3402 21.05 12.2002 21.07 12.1202 21.15L10.4402 22.83C10.1102 23.15 9.6702 23.33 9.2002 23.33ZM6.1102 19.57C6.5702 19.57 7.0202 19.74 7.3602 20.09L9.0202 21.76C9.08019 21.82 9.1602 21.83 9.2002 21.83C9.2402 21.83 9.3202 21.82 9.3802 21.76L11.0602 20.08C11.6802 19.46 12.6602 19.4 13.3502 19.93L15.0502 21.2C15.1602 21.28 15.2602 21.25 15.3102 21.22C15.3602 21.19 15.4502 21.13 15.4502 21V4C15.4502 3.55 15.5602 3.12 15.7502 2.75H6.2002C3.9802 2.75 2.9502 3.78 2.9502 6V21C2.9502 21.14 3.0402 21.2 3.0902 21.23C3.1502 21.26 3.2502 21.28 3.3502 21.2L5.0602 19.92C5.3702 19.69 5.7402 19.57 6.1102 19.57Z" fill="white"/>
<path d="M12.2002 13.76H9.2002C8.7902 13.76 8.4502 13.42 8.4502 13.01C8.4502 12.6 8.7902 12.26 9.2002 12.26H12.2002C12.6102 12.26 12.9502 12.6 12.9502 13.01C12.9502 13.42 12.6102 13.76 12.2002 13.76Z" fill="white"/>
<path d="M12.2002 9.76001H9.2002C8.7902 9.76001 8.4502 9.42001 8.4502 9.01001C8.4502 8.60001 8.7902 8.26001 9.2002 8.26001H12.2002C12.6102 8.26001 12.9502 8.60001 12.9502 9.01001C12.9502 9.42001 12.6102 9.76001 12.2002 9.76001Z" fill="white"/>
<path d="M6.17041 10.01C5.62041 10.01 5.17041 9.56001 5.17041 9.01001C5.17041 8.46001 5.62041 8.01001 6.17041 8.01001C6.72041 8.01001 7.17041 8.46001 7.17041 9.01001C7.17041 9.56001 6.72041 10.01 6.17041 10.01Z" fill="white"/>
<path d="M6.17041 14.01C5.62041 14.01 5.17041 13.56 5.17041 13.01C5.17041 12.46 5.62041 12.01 6.17041 12.01C6.72041 12.01 7.17041 12.46 7.17041 13.01C7.17041 13.56 6.72041 14.01 6.17041 14.01Z" fill="white"/>
</svg>
