<svg width="25" height="24" viewBox="0 0 25 24" fill="none" xmlns="http://www.w3.org/2000/svg">
<path d="M20.2198 11.75H16.7998C16.3898 11.75 16.0498 11.41 16.0498 11V4.01C16.0498 3.27 16.3398 2.58 16.8598 2.06C17.3798 1.54 18.0698 1.25 18.8098 1.25H18.8198C20.0698 1.26 21.2498 1.75 22.1498 2.64C23.0498 3.55 23.5398 4.75 23.5398 6V8.42C23.5498 10.41 22.2098 11.75 20.2198 11.75ZM17.5498 10.25H20.2198C21.3798 10.25 22.0498 9.58 22.0498 8.42V6C22.0498 5.14 21.7098 4.32 21.0998 3.7C20.4898 3.1 19.6698 2.76 18.8198 2.75C18.8198 2.75 18.8198 2.75 18.8098 2.75C18.4798 2.75 18.1598 2.88 17.9198 3.12C17.6798 3.36 17.5498 3.67 17.5498 4.01V10.25Z" fill="white"/>
<path d="M9.79957 23.33C9.32957 23.33 8.88957 23.15 8.55957 22.81L6.89957 21.14C6.80957 21.05 6.66957 21.04 6.56957 21.12L4.85957 22.4C4.32957 22.8 3.62957 22.87 3.02957 22.57C2.42957 22.27 2.05957 21.67 2.05957 21V6C2.05957 2.98 3.78957 1.25 6.80957 1.25H18.8096C19.2196 1.25 19.5596 1.59 19.5596 2C19.5596 2.41 19.2196 2.75 18.8096 2.75C18.1196 2.75 17.5596 3.31 17.5596 4V21C17.5596 21.67 17.1896 22.27 16.5896 22.57C15.9896 22.87 15.2896 22.81 14.7596 22.41L13.0496 21.13C12.9496 21.05 12.8096 21.07 12.7296 21.15L11.0496 22.83C10.7096 23.15 10.2696 23.33 9.79957 23.33ZM6.70957 19.57C7.16957 19.57 7.61957 19.74 7.95957 20.09L9.61957 21.76C9.67957 21.82 9.75957 21.83 9.79957 21.83C9.83957 21.83 9.91957 21.82 9.97957 21.76L11.6596 20.08C12.2796 19.46 13.2596 19.4 13.9496 19.93L15.6496 21.2C15.7596 21.28 15.8596 21.25 15.9096 21.22C15.9596 21.19 16.0496 21.13 16.0496 21V4C16.0496 3.55 16.1596 3.12 16.3496 2.75H6.79957C4.57957 2.75 3.54957 3.78 3.54957 6V21C3.54957 21.14 3.63957 21.2 3.68957 21.23C3.74957 21.26 3.84957 21.28 3.94957 21.2L5.65957 19.92C5.96957 19.69 6.33957 19.57 6.70957 19.57Z" fill="white"/>
<path d="M12.23 14.08C11.67 14.08 11.23 13.63 11.23 13.08C11.23 12.53 11.68 12.08 12.23 12.08C12.78 12.08 13.23 12.53 13.23 13.08C13.23 13.63 12.78 14.08 12.23 14.08Z" fill="white"/>
<path d="M7.36963 10.03C6.80963 10.03 6.36963 9.58003 6.36963 9.03003C6.36963 8.48003 6.81963 8.03003 7.36963 8.03003C7.91963 8.03003 8.36963 8.48003 8.36963 9.03003C8.36963 9.58003 7.91963 10.03 7.36963 10.03Z" fill="white"/>
<path d="M7.06976 14.48C6.87976 14.48 6.68977 14.41 6.53977 14.26C6.24977 13.97 6.24977 13.49 6.53977 13.2L11.9998 7.73996C12.2898 7.44996 12.7698 7.44996 13.0598 7.73996C13.3498 8.02996 13.3498 8.50996 13.0598 8.79996L7.59976 14.26C7.45976 14.4 7.25976 14.48 7.06976 14.48Z" fill="white"/>
</svg>
