<svg width="25" height="24" viewBox="0 0 25 24" fill="none" xmlns="http://www.w3.org/2000/svg">
<path d="M11.1599 22.71C10.0799 22.71 8.98987 22.4 8.14987 21.77L3.86987 18.57C2.73987 17.73 1.85986 15.96 1.85986 14.54V7.12998C1.85986 5.59998 2.97988 3.96997 4.41988 3.42997L9.39987 1.55997C10.3899 1.18997 11.9399 1.18997 12.9299 1.55997L17.8999 3.42997C19.0699 3.86997 20.0599 5.03997 20.3799 6.33997C20.4299 6.55997 20.3799 6.79998 20.2399 6.97998C20.0999 7.15998 19.8799 7.26996 19.6499 7.26996L11.7399 7.27997C10.4699 7.35997 10.1599 7.56999 10.1599 9.41999V14.85C10.1599 16.76 10.4099 17 12.3499 17H18.2699C18.5799 17 18.8599 17.19 18.9699 17.48C19.0799 17.77 18.9999 18.1 18.7699 18.31C18.6599 18.4 18.5699 18.49 18.4599 18.57L14.1799 21.78C13.3199 22.4 12.2399 22.71 11.1599 22.71ZM11.1599 2.78998C10.7099 2.78998 10.2499 2.84998 9.91988 2.97998L4.93987 4.84998C4.09987 5.16998 3.34987 6.23997 3.34987 7.14997V14.56C3.34987 15.5 4.00987 16.82 4.75987 17.38L9.03987 20.58C10.1899 21.43 12.1199 21.43 13.2699 20.58L16.0399 18.51H12.3399C9.57987 18.51 8.64987 17.59 8.64987 14.86V9.42997C8.64987 7.29997 9.15987 5.94998 11.6899 5.78998L12.3399 5.77997H18.4899C18.1899 5.34997 17.7899 5.00998 17.3699 4.84998L12.3999 2.97998C12.0599 2.84998 11.6099 2.78998 11.1599 2.78998Z" fill="white"/>
<path d="M22.5999 11.97H9.3999C8.9899 11.97 8.6499 11.63 8.6499 11.22C8.6499 10.81 8.9899 10.47 9.3999 10.47H22.5999C23.0099 10.47 23.3499 10.81 23.3499 11.22C23.3499 11.63 23.0099 11.97 22.5999 11.97Z" fill="white"/>
<path d="M19.6599 18.5H12.3399C9.5799 18.5 8.6499 17.58 8.6499 14.85V9.41998C8.6499 7.28998 9.1599 5.93997 11.6899 5.77997L12.3399 5.76996H19.6599C22.4199 5.76996 23.3499 6.68998 23.3499 9.41998V14.97C23.3299 17.61 22.3999 18.5 19.6599 18.5ZM12.3399 7.26996L11.7299 7.27997C10.4599 7.35997 10.1499 7.56998 10.1499 9.41998V14.85C10.1499 16.76 10.3999 17 12.3399 17H19.6599C21.5699 17 21.8299 16.75 21.8499 14.97V9.42996C21.8499 7.51996 21.5999 7.27997 19.6599 7.27997H12.3399V7.26996Z" fill="white"/>
<path d="M13.2502 16.01H11.9102C11.5002 16.01 11.1602 15.67 11.1602 15.26C11.1602 14.85 11.5002 14.51 11.9102 14.51H13.2502C13.6602 14.51 14.0002 14.85 14.0002 15.26C14.0002 15.67 13.6702 16.01 13.2502 16.01Z" fill="white"/>
<path d="M18.6201 16.01H15.3501C14.9401 16.01 14.6001 15.67 14.6001 15.26C14.6001 14.85 14.9401 14.51 15.3501 14.51H18.6201C19.0301 14.51 19.3701 14.85 19.3701 15.26C19.3701 15.67 19.0401 16.01 18.6201 16.01Z" fill="white"/>
</svg>
