<svg width="25" height="24" viewBox="0 0 25 24" fill="none" xmlns="http://www.w3.org/2000/svg">
<path d="M15.2002 22.75H9.2002C3.7702 22.75 1.4502 20.43 1.4502 15V9C1.4502 3.57 3.7702 1.25 9.2002 1.25H15.2002C20.6302 1.25 22.9502 3.57 22.9502 9V15C22.9502 20.43 20.6302 22.75 15.2002 22.75ZM9.2002 2.75C4.5902 2.75 2.9502 4.39 2.9502 9V15C2.9502 19.61 4.5902 21.25 9.2002 21.25H15.2002C19.8102 21.25 21.4502 19.61 21.4502 15V9C21.4502 4.39 19.8102 2.75 15.2002 2.75H9.2002Z" fill="white"/>
<path d="M12.2003 16.56C11.1003 16.56 10.2003 15.66 10.2003 14.56V12.96C9.61032 12.47 9.21032 11.78 9.11032 11.01C9.09032 10.89 9.07031 10.72 9.07031 10.56C9.07031 9.58998 9.51031 8.68998 10.2903 8.08998C11.0703 7.48998 12.0703 7.29998 13.0303 7.54998C14.0803 7.82998 14.9503 8.68999 15.2203 9.73998C15.3303 10.15 15.3603 10.58 15.2903 11.01C15.1803 11.77 14.7903 12.46 14.2003 12.95V14.55C14.2003 15.66 13.3003 16.56 12.2003 16.56ZM12.1903 8.93998C11.8303 8.93998 11.4903 9.04998 11.2003 9.27998C10.8003 9.58998 10.5703 10.06 10.5703 10.56C10.5703 10.63 10.5703 10.71 10.5903 10.77C10.6603 11.27 10.9303 11.68 11.3503 11.94L11.7003 12.16V14.56C11.7003 14.84 11.9203 15.06 12.2003 15.06C12.4803 15.06 12.7003 14.84 12.7003 14.56V12.16L13.0503 11.94C13.4603 11.68 13.7403 11.27 13.8003 10.8V10.78C13.8403 10.56 13.8303 10.34 13.7703 10.13C13.6303 9.57998 13.1803 9.13998 12.6403 8.99998C12.4903 8.95998 12.3403 8.93998 12.1903 8.93998Z" fill="white"/>
<path d="M22.2003 10.16H14.5503V11.66H22.2003V10.16Z" fill="white"/>
<path d="M9.85019 10.16H2.2002V11.66H9.85019V10.16Z" fill="white"/>
</svg>
