<svg width="25" height="24" viewBox="0 0 25 24" fill="none" xmlns="http://www.w3.org/2000/svg">
<path d="M12.47 21.98C11.06 21.98 9.63999 21.44 8.56999 20.37L4.03999 15.84C2.93999 14.74 2.35999 13.22 2.42999 11.67L2.66999 6.66999C2.77999 4.27999 4.66999 2.38999 7.06999 2.26999L12.07 2.02999C13.62 1.96999 15.14 2.53999 16.24 3.63999L20.77 8.16999C22.92 10.32 22.92 13.83 20.77 15.98L16.38 20.37C15.3 21.44 13.89 21.98 12.47 21.98ZM5.09999 14.77L9.62999 19.3C10.39 20.06 11.4 20.48 12.47 20.48C13.54 20.48 14.55 20.06 15.31 19.3L19.7 14.91C20.46 14.15 20.88 13.14 20.88 12.07C20.88 11 20.46 9.98999 19.7 9.22999L15.17 4.69999C14.37 3.89999 13.26 3.46999 12.14 3.52999L7.13999 3.76999C5.50999 3.83999 4.23999 5.10999 4.15999 6.72999L3.91999 11.73C3.86999 12.86 4.29999 13.97 5.09999 14.77Z" fill="white"/>
<path d="M9.8999 12.75C8.1099 12.75 6.6499 11.29 6.6499 9.5C6.6499 7.71 8.1099 6.25 9.8999 6.25C11.6899 6.25 13.1499 7.71 13.1499 9.5C13.1499 11.29 11.6899 12.75 9.8999 12.75ZM9.8999 7.75C8.9399 7.75 8.1499 8.54 8.1499 9.5C8.1499 10.46 8.9399 11.25 9.8999 11.25C10.8599 11.25 11.6499 10.46 11.6499 9.5C11.6499 8.54 10.8599 7.75 9.8999 7.75Z" fill="white"/>
</svg>
