<svg width="25" height="24" viewBox="0 0 25 24" fill="none" xmlns="http://www.w3.org/2000/svg">
<path d="M17.4899 22.75H8.10992C3.93992 22.75 2.66992 21.48 2.66992 17.31V16.85C2.66992 16.44 3.00992 16.1 3.41992 16.1C4.29992 16.1 5.01992 15.38 5.01992 14.5C5.01992 13.62 4.29992 12.9 3.41992 12.9C3.00992 12.9 2.66992 12.56 2.66992 12.15V11.69C2.66992 7.52 3.93992 6.25 8.10992 6.25H17.4899C21.6599 6.25 22.9299 7.52 22.9299 11.69V12.63C22.9299 13.04 22.5899 13.38 22.1799 13.38C21.2999 13.38 20.5799 14.1 20.5799 14.98C20.5799 15.86 21.2999 16.57 22.1799 16.57C22.5899 16.57 22.9299 16.91 22.9299 17.32C22.9199 21.48 21.6499 22.75 17.4899 22.75ZM4.17992 17.51C4.19992 20.69 4.82992 21.25 8.11992 21.25H17.4999C20.6199 21.25 21.3399 20.74 21.4299 17.97C20.0899 17.63 19.0899 16.42 19.0899 14.97C19.0899 13.52 20.0899 12.3 21.4399 11.96V11.68C21.4399 8.33 20.8499 7.74 17.4999 7.74H8.10992C4.82992 7.74 4.19992 8.31 4.16992 11.48C5.51992 11.82 6.51992 13.04 6.51992 14.49C6.51992 15.94 5.51992 17.17 4.17992 17.51Z" fill="white"/>
<path d="M10.7998 10.25C10.3898 10.25 10.0498 9.91 10.0498 9.5V7C10.0498 6.59 10.3898 6.25 10.7998 6.25C11.2098 6.25 11.5498 6.59 11.5498 7V9.5C11.5498 9.91 11.2098 10.25 10.7998 10.25Z" fill="white"/>
<path d="M10.7998 16.92C10.3898 16.92 10.0498 16.58 10.0498 16.17V12.84C10.0498 12.43 10.3898 12.09 10.7998 12.09C11.2098 12.09 11.5498 12.43 11.5498 12.84V16.17C11.5498 16.58 11.2098 16.92 10.7998 16.92Z" fill="white"/>
<path d="M10.7998 22.75C10.3898 22.75 10.0498 22.41 10.0498 22V19.5C10.0498 19.09 10.3898 18.75 10.7998 18.75C11.2098 18.75 11.5498 19.09 11.5498 19.5V22C11.5498 22.41 11.2098 22.75 10.7998 22.75Z" fill="white"/>
<path d="M17.13 7.75001H8.03998C7.73998 7.75001 7.45998 7.57001 7.34998 7.29001C7.23998 7.01001 7.29998 6.68001 7.50998 6.47001L10.44 3.54001C13.14 0.840015 14.79 0.840015 17.48 3.54001L18.08 4.14001C18.22 4.28001 18.3 4.47001 18.3 4.67001C18.3 4.87001 18.22 5.06001 18.08 5.20001C17.68 5.60001 17.57 6.19001 17.8 6.70001C17.91 6.93001 17.89 7.20002 17.75 7.42001C17.62 7.62001 17.38 7.75001 17.13 7.75001ZM9.84998 6.25001H16.18C16.16 5.72001 16.29 5.19001 16.56 4.73001L16.43 4.60001C14.34 2.51001 13.6 2.51001 11.51 4.60001L9.84998 6.25001Z" fill="white"/>
</svg>
