<svg width="25" height="24" viewBox="0 0 25 24" fill="none" xmlns="http://www.w3.org/2000/svg">
<path d="M17.9803 20.75H11.5103C11.1003 20.75 10.7603 20.41 10.7603 20C10.7603 19.59 11.1003 19.25 11.5103 19.25H17.9803C21.0403 19.25 21.7603 18.75 21.8403 16.03C20.5203 15.69 19.5403 14.49 19.5403 13.07C19.5403 11.64 20.5203 10.43 21.8503 10.09V9.82999C21.8503 6.53999 21.2703 5.95999 17.9803 5.95999H12.3503V12C12.3503 12.41 12.0103 12.75 11.6003 12.75C11.1903 12.75 10.8503 12.41 10.8503 12V5.20999C10.8503 4.79999 11.1903 4.45999 11.6003 4.45999H17.9803C22.1003 4.45999 23.3503 5.70999 23.3503 9.82999V10.75C23.3503 11.16 23.0103 11.5 22.6003 11.5C21.7403 11.5 21.0403 12.2 21.0403 13.07C21.0403 13.93 21.7403 14.63 22.6003 14.63C23.0103 14.63 23.3503 14.97 23.3503 15.38C23.3503 19.5 22.1003 20.75 17.9803 20.75Z" fill="white"/>
<path d="M11.6 20.75H8.83005C6.81005 20.75 5.77005 19.23 4.82005 16.95L4.63005 16.49C4.56005 16.31 4.56005 16.1 4.64005 15.92C4.72005 15.74 4.87005 15.59 5.05005 15.52C5.45005 15.36 5.76005 15.05 5.93005 14.66C6.10005 14.26 6.10005 13.82 5.93005 13.42C5.60005 12.58 4.65005 12.19 3.81005 12.52C3.62005 12.6 3.42005 12.59 3.23005 12.51C3.05005 12.43 2.90005 12.28 2.83005 12.1L2.66005 11.67C1.06005 7.78 1.76005 6.11 5.65005 4.5L8.29005 3.42C8.67005 3.26 9.11005 3.45 9.27005 3.83L12.3 11.17C12.34 11.26 12.36 11.36 12.36 11.46V14C12.36 14.41 12.02 14.75 11.61 14.75C11.2 14.75 10.86 14.41 10.86 14V11.6L8.16005 5.09L6.22005 5.89C3.14005 7.16 2.77005 7.94 3.98005 10.94C5.37005 10.74 6.77005 11.49 7.32005 12.84C7.64005 13.61 7.64005 14.46 7.31005 15.23C7.09005 15.76 6.73005 16.21 6.27005 16.54C7.23005 18.8 7.93005 19.25 8.82005 19.25H10.84V17C10.84 16.59 11.18 16.25 11.59 16.25C12 16.25 12.34 16.59 12.34 17V20C12.35 20.41 12.01 20.75 11.6 20.75Z" fill="white"/>
<path d="M8.7701 20.75H8.6001C8.1901 20.75 7.8501 20.41 7.8501 20C7.8501 19.59 8.1901 19.25 8.6001 19.25H8.7701C9.1801 19.25 9.5201 19.59 9.5201 20C9.5201 20.41 9.1801 20.75 8.7701 20.75Z" fill="white"/>
</svg>
