<svg width="25" height="24" viewBox="0 0 25 24" fill="none" xmlns="http://www.w3.org/2000/svg">
<path d="M12.6001 22.75C11.8201 22.75 11.0601 22.35 10.5401 21.65L9.53011 20.3C9.32011 20.02 9.04011 19.86 8.74011 19.84C8.44011 19.83 8.14012 19.96 7.90012 20.21L7.35011 19.7L7.90012 20.21C6.46012 21.75 5.35011 21.63 4.82011 21.42C4.28011 21.21 3.37012 20.52 3.37012 18.3V7.04C3.37012 2.6 4.65012 1.25 8.84012 1.25H16.4001C20.5901 1.25 21.8701 2.6 21.8701 7.04V18.3C21.8701 20.51 20.9601 21.2 20.4201 21.42C19.8901 21.63 18.7901 21.75 17.3401 20.21C17.1001 19.95 16.8001 19.82 16.4901 19.84C16.1901 19.86 15.9001 20.02 15.6901 20.3L14.6801 21.65C14.1401 22.35 13.3801 22.75 12.6001 22.75ZM8.68011 18.33C8.72011 18.33 8.77012 18.33 8.81012 18.33C9.55012 18.37 10.2501 18.76 10.7201 19.39L11.7301 20.74C12.2201 21.39 12.9701 21.39 13.4601 20.74L14.4701 19.39C14.9501 18.76 15.6401 18.37 16.3901 18.33C17.1401 18.29 17.8701 18.6 18.4101 19.18C19.1701 19.99 19.6601 20.09 19.8401 20.02C20.0801 19.92 20.3401 19.34 20.3401 18.3V7.04C20.3401 3.43 19.7101 2.75 16.3701 2.75H8.81012C5.47012 2.75 4.84012 3.43 4.84012 7.04V18.3C4.84012 19.35 5.10012 19.93 5.34012 20.02C5.51012 20.09 6.01011 19.99 6.77011 19.18C7.32011 18.63 7.99011 18.33 8.68011 18.33Z" fill="white"/>
<path d="M15.3501 10.75H9.8501C9.4401 10.75 9.1001 10.41 9.1001 10C9.1001 9.59 9.4401 9.25 9.8501 9.25H15.3501C15.7601 9.25 16.1001 9.59 16.1001 10C16.1001 10.41 15.7601 10.75 15.3501 10.75Z" fill="white"/>
</svg>
