<svg width="25" height="24" viewBox="0 0 25 24" fill="none" xmlns="http://www.w3.org/2000/svg">
<path d="M17.7998 22.75H8.42981C8.10981 22.75 7.82979 22.55 7.71979 22.26C7.60979 21.97 7.69982 21.63 7.93982 21.43C8.17982 21.23 8.39981 20.97 8.55981 20.69C8.87981 20.18 9.03979 19.6 9.03979 19.01C9.03979 17.22 7.57979 15.76 5.78979 15.76C4.85979 15.76 3.96979 16.16 3.34979 16.87C3.13979 17.1 2.80978 17.19 2.51978 17.08C2.22978 16.97 2.02979 16.69 2.02979 16.38V12C2.02979 8.92 3.92982 6.69001 6.87982 6.32001C7.14982 6.28001 7.45978 6.25 7.77979 6.25H17.7798C18.0198 6.25 18.3298 6.26 18.6498 6.31C21.5998 6.65 23.5298 8.89 23.5298 12V17C23.5498 20.44 21.2398 22.75 17.7998 22.75ZM9.9798 21.25H17.7998C20.3798 21.25 22.0498 19.58 22.0498 17V12C22.0498 9.66 20.6798 8.04998 18.4598 7.78998C18.2198 7.74998 18.0098 7.75 17.7998 7.75H7.7998C7.5598 7.75 7.32979 7.76999 7.09979 7.79999C4.89979 8.07999 3.5498 9.68 3.5498 12V14.82C4.2298 14.45 5.0098 14.25 5.7998 14.25C8.4198 14.25 10.5498 16.38 10.5498 19C10.5498 19.79 10.3498 20.57 9.9798 21.25Z" fill="white"/>
<path d="M6.98984 7.80995C6.74984 7.80995 6.52985 7.69995 6.37985 7.49995C6.20985 7.26995 6.18985 6.96992 6.31985 6.71992C6.48985 6.37992 6.72982 6.04995 7.03982 5.74995L10.2898 2.48994C11.9498 0.839941 14.6498 0.839941 16.3098 2.48994L18.0598 4.26997C18.7998 4.99997 19.2498 5.97997 19.2998 7.01997C19.3098 7.24997 19.2198 7.46995 19.0498 7.61995C18.8798 7.76995 18.6498 7.83994 18.4298 7.79994C18.2298 7.76994 18.0198 7.75996 17.7998 7.75996H7.79983C7.55983 7.75996 7.32982 7.77995 7.09982 7.80995C7.06982 7.80995 7.02984 7.80995 6.98984 7.80995ZM8.65982 6.24995H17.6198C17.4898 5.90995 17.2798 5.59996 16.9998 5.31996L15.2398 3.53993C14.1698 2.47993 12.4198 2.47993 11.3398 3.53993L8.65982 6.24995Z" fill="white"/>
<path d="M22.7998 17.25H19.7998C18.2798 17.25 17.0498 16.02 17.0498 14.5C17.0498 12.98 18.2798 11.75 19.7998 11.75H22.7998C23.2098 11.75 23.5498 12.09 23.5498 12.5C23.5498 12.91 23.2098 13.25 22.7998 13.25H19.7998C19.1098 13.25 18.5498 13.81 18.5498 14.5C18.5498 15.19 19.1098 15.75 19.7998 15.75H22.7998C23.2098 15.75 23.5498 16.09 23.5498 16.5C23.5498 16.91 23.2098 17.25 22.7998 17.25Z" fill="white"/>
<path d="M5.7998 23.75C4.1398 23.75 2.57981 22.87 1.73981 21.44C1.28981 20.72 1.0498 19.87 1.0498 19C1.0498 17.85 1.46981 16.74 2.23981 15.87C3.13981 14.84 4.4398 14.25 5.7998 14.25C8.4198 14.25 10.5498 16.38 10.5498 19C10.5498 19.87 10.3098 20.72 9.8598 21.45C9.6098 21.87 9.28979 22.25 8.90979 22.57C8.07979 23.33 6.9698 23.75 5.7998 23.75ZM5.7998 15.75C4.8698 15.75 3.9798 16.15 3.3598 16.86C2.8398 17.46 2.5498 18.22 2.5498 19C2.5498 19.59 2.70978 20.17 3.01978 20.67C3.59978 21.65 4.6698 22.25 5.7998 22.25C6.5898 22.25 7.34981 21.96 7.92981 21.44C8.18981 21.22 8.40982 20.96 8.56982 20.68C8.88982 20.17 9.0498 19.59 9.0498 19C9.0498 17.21 7.5898 15.75 5.7998 15.75Z" fill="white"/>
<path d="M6.86972 20.7899C6.67972 20.7899 6.48969 20.72 6.33969 20.57L4.22971 18.46C3.93971 18.17 3.93971 17.69 4.22971 17.4C4.51971 17.11 4.9997 17.11 5.2897 17.4L7.39969 19.51C7.68969 19.8 7.68969 20.28 7.39969 20.57C7.24969 20.72 7.05972 20.7899 6.86972 20.7899Z" fill="white"/>
<path d="M4.72989 20.8199C4.53989 20.8199 4.34992 20.7499 4.19992 20.5999C3.90992 20.3099 3.90992 19.8299 4.19992 19.5399L6.30991 17.4299C6.59991 17.1399 7.0799 17.1399 7.3699 17.4299C7.6599 17.7199 7.6599 18.1999 7.3699 18.4899L5.25992 20.5999C5.10992 20.7499 4.91989 20.8199 4.72989 20.8199Z" fill="white"/>
</svg>
