<svg width="25" height="24" viewBox="0 0 25 24" fill="none" xmlns="http://www.w3.org/2000/svg">
<path d="M13.7998 11.9H7.7998C7.3898 11.9 7.0498 11.56 7.0498 11.15C7.0498 10.74 7.3898 10.4 7.7998 10.4H13.7998C14.2098 10.4 14.5498 10.74 14.5498 11.15C14.5498 11.56 14.2098 11.9 13.7998 11.9Z" fill="white"/>
<path d="M2.7998 11.9001C2.3898 11.9001 2.0498 11.5601 2.0498 11.1501V6.53009C2.0498 4.08009 4.03981 2.09009 6.48981 2.09009H12.1098C14.6798 2.09009 16.5498 3.80009 16.5498 6.15009C16.5498 6.56009 16.2098 6.90009 15.7998 6.90009C15.3898 6.90009 15.0498 6.56009 15.0498 6.15009C15.0498 4.39009 13.5198 3.59009 12.1098 3.59009H6.48981C4.86981 3.59009 3.5498 4.91009 3.5498 6.53009V11.1501C3.5498 11.5701 3.2098 11.9001 2.7998 11.9001Z" fill="white"/>
<path d="M16.7998 21.9H6.7998C4.1798 21.9 2.0498 19.77 2.0498 17.15V10.15C2.0498 7.53002 4.1798 5.40002 6.7998 5.40002H16.7998C19.4198 5.40002 21.5498 7.53002 21.5498 10.15V11.6C21.5498 12.01 21.2098 12.35 20.7998 12.35H19.7198C19.3698 12.35 19.0498 12.48 18.8198 12.72L18.8098 12.73C18.4798 13.06 18.3498 13.52 18.4698 13.97C18.6198 14.53 19.2098 14.94 19.8698 14.94H20.7998C21.2098 14.94 21.5498 15.28 21.5498 15.69V17.14C21.5498 19.77 19.4198 21.9 16.7998 21.9ZM6.7998 6.90002C5.0098 6.90002 3.5498 8.36002 3.5498 10.15V17.15C3.5498 18.94 5.0098 20.4 6.7998 20.4H16.7998C18.5898 20.4 20.0498 18.94 20.0498 17.15V16.45H19.8698C18.5198 16.45 17.3498 15.6 17.0198 14.37C16.7598 13.4 17.0398 12.37 17.7498 11.67C18.2698 11.14 18.9698 10.85 19.7198 10.85H20.0498V10.15C20.0498 8.36002 18.5898 6.90002 16.7998 6.90002H6.7998Z" fill="white"/>
<path d="M21.7697 16.45H19.8397C18.3297 16.45 17.0497 15.33 16.9297 13.89C16.8497 13.06 17.1497 12.25 17.7497 11.66C18.2497 11.14 18.9597 10.85 19.7097 10.85H21.7597C22.7397 10.85 23.5397 11.64 23.5397 12.62V14.68C23.5497 15.66 22.7497 16.45 21.7697 16.45ZM19.7197 12.35C19.3697 12.35 19.0497 12.48 18.8197 12.72C18.5297 13 18.3897 13.38 18.4297 13.76C18.4797 14.42 19.1197 14.95 19.8397 14.95H21.7697C21.9197 14.95 22.0497 14.83 22.0497 14.68V12.62C22.0497 12.47 21.9197 12.35 21.7697 12.35H19.7197Z" fill="white"/>
</svg>
