<svg width="25" height="24" viewBox="0 0 25 24" fill="none" xmlns="http://www.w3.org/2000/svg">
<path d="M17.6001 22.75H12.6001C12.1901 22.75 11.8501 22.41 11.8501 22C11.8501 21.59 12.1901 21.25 12.6001 21.25H17.6001C20.1801 21.25 21.8501 19.58 21.8501 17V12C21.8501 9.71 20.4301 8 18.3101 7.75H17.6001H7.6001C7.3201 7.75 7.2201 7.75 7.0401 7.81C6.9901 7.83 6.9401 7.84003 6.8901 7.84003C4.6801 8.10003 3.3501 9.65 3.3501 12V13C3.3501 13.41 3.0101 13.75 2.6001 13.75C2.1901 13.75 1.8501 13.41 1.8501 13V12C1.8501 8.94 3.7301 6.72999 6.6401 6.35999C7.0201 6.24999 7.3001 6.25 7.6001 6.25H18.4001C21.4001 6.6 23.3501 8.91 23.3501 12V17C23.3501 20.44 21.0401 22.75 17.6001 22.75Z" fill="white"/>
<path d="M6.79993 7.84996C6.59993 7.84996 6.40993 7.76999 6.26993 7.62999C6.06993 7.42999 5.99993 7.12997 6.08993 6.85997C6.24993 6.38997 6.53993 6.10001 6.86993 5.77001L10.0599 2.47997C11.7099 0.829969 14.4899 0.829959 16.1299 2.46996L17.9299 4.27001C18.5899 4.93001 19.0099 5.83996 19.1399 6.90996C19.1699 7.11996 19.0999 7.33999 18.9599 7.49999C18.8199 7.65999 18.6099 7.74999 18.3999 7.74999H7.59994C7.31994 7.74999 7.21994 7.74999 7.03994 7.80999C6.95994 7.83999 6.87993 7.84996 6.79993 7.84996ZM8.48994 6.24999H17.4499C17.3299 5.92999 17.1399 5.61001 16.8699 5.33001L15.0699 3.53002C13.9999 2.46002 12.1999 2.46002 11.1299 3.53002L8.48994 6.24999Z" fill="white"/>
<path d="M22.6001 17.25H19.6001C18.0801 17.25 16.8501 16.02 16.8501 14.5C16.8501 12.98 18.0801 11.75 19.6001 11.75H22.6001C23.0101 11.75 23.3501 12.09 23.3501 12.5C23.3501 12.91 23.0101 13.25 22.6001 13.25H19.6001C18.9101 13.25 18.3501 13.81 18.3501 14.5C18.3501 15.19 18.9101 15.75 19.6001 15.75H22.6001C23.0101 15.75 23.3501 16.09 23.3501 16.5C23.3501 16.91 23.0101 17.25 22.6001 17.25Z" fill="white"/>
<path d="M6.4002 22.15C4.2202 22.15 2.4502 20.38 2.4502 18.2C2.4502 16.02 4.2202 14.25 6.4002 14.25C8.5802 14.25 10.3502 16.02 10.3502 18.2C10.3502 20.38 8.5802 22.15 6.4002 22.15ZM6.4002 15.75C5.0502 15.75 3.9502 16.85 3.9502 18.2C3.9502 19.55 5.0502 20.65 6.4002 20.65C7.7502 20.65 8.8502 19.55 8.8502 18.2C8.8502 16.85 7.7502 15.75 6.4002 15.75Z" fill="white"/>
<path d="M2.60004 22.75C2.41004 22.75 2.22004 22.68 2.07004 22.53C1.78004 22.24 1.78004 21.7599 2.07004 21.4699L3.07004 20.4699C3.36004 20.1799 3.84004 20.1799 4.13004 20.4699C4.42004 20.7599 4.42004 21.24 4.13004 21.53L3.13004 22.53C2.98004 22.68 2.79004 22.75 2.60004 22.75Z" fill="white"/>
</svg>
