<svg width="24" height="24" viewBox="0 0 24 24" fill="none" xmlns="http://www.w3.org/2000/svg">
<g clip-path="url(#clip0_6036_28101)">
<path d="M12.0293 2C6.5093 2 2.0293 6.48 2.0293 12C2.0293 17.52 6.5093 22 12.0293 22C17.5493 22 22.0293 17.52 22.0293 12C22.0293 9.35 20.9793 6.8 19.1093 4.92C17.2293 3.05 14.6893 2 12.0293 2Z" stroke="#F5F5F5" stroke-width="1.5" stroke-linecap="round" stroke-linejoin="round"/>
<path d="M2.55078 15.1998L2.61078 15.1398C4.18078 13.5698 7.14079 16.8998 8.90079 15.1398C10.4708 13.5698 8.11079 11.2098 10.4708 8.84978C12.6908 6.62978 11.2608 4.91977 8.90079 2.55977L8.8508 2.50977" stroke="#F5F5F5" stroke-width="1.5" stroke-linecap="round" stroke-linejoin="round"/>
<path d="M11.4491 21.9698C11.3691 21.8098 11.3091 21.6398 11.2591 21.4598C10.9591 20.2998 11.2891 19.0698 12.1391 18.2298C12.9891 17.3898 14.2191 17.0698 15.3791 17.3798C16.5291 17.6998 17.4291 18.5998 17.7291 19.7598C17.7591 19.8898 17.7791 20.0198 17.7891 20.1598" stroke="#F5F5F5" stroke-width="1.5" stroke-linecap="round" stroke-linejoin="round"/>
</g>
<defs>
<clipPath id="clip0_6036_28101">
<rect width="24" height="24" fill="white"/>
</clipPath>
</defs>
</svg>
