<svg width="33" height="32" viewBox="0 0 33 32" fill="none" xmlns="http://www.w3.org/2000/svg">
<g clip-path="url(#clip0_146_6317)">
<path d="M16.4004 32C25.2369 32 32.4004 24.8366 32.4004 16C32.4004 7.16344 25.2369 0 16.4004 0C7.56383 0 0.400391 7.16344 0.400391 16C0.400391 24.8366 7.56383 32 16.4004 32Z" fill="#F7931A"/>
<path d="M23.5896 14.02C23.9036 11.924 22.3066 10.797 20.1246 10.045L20.8326 7.205L19.1046 6.775L18.4146 9.54C17.9606 9.426 17.4946 9.32 17.0296 9.214L17.7246 6.431L15.9966 6L15.2886 8.839C14.9126 8.753 14.5426 8.669 14.1846 8.579L14.1866 8.57L11.8026 7.975L11.3426 9.821C11.3426 9.821 12.6256 10.115 12.5986 10.133C13.2986 10.308 13.4246 10.771 13.4036 11.139L12.5976 14.374C12.6456 14.386 12.7076 14.404 12.7776 14.431L12.5946 14.386L11.4646 18.918C11.3786 19.13 11.1616 19.449 10.6716 19.328C10.6896 19.353 9.41562 19.015 9.41562 19.015L8.55762 20.993L10.8076 21.554C11.2256 21.659 11.6356 21.769 12.0386 21.872L11.3236 24.744L13.0506 25.174L13.7586 22.334C14.2306 22.461 14.6886 22.579 15.1366 22.691L14.4306 25.519L16.1586 25.949L16.8736 23.083C19.8216 23.641 22.0376 23.416 22.9706 20.75C23.7226 18.604 22.9336 17.365 21.3826 16.558C22.5126 16.298 23.3626 15.555 23.5896 14.02V14.02ZM19.6396 19.558C19.1066 21.705 15.4916 20.544 14.3196 20.253L15.2696 16.448C16.4416 16.741 20.1986 17.32 19.6396 19.558ZM20.1746 13.989C19.6876 15.942 16.6796 14.949 15.7046 14.706L16.5646 11.256C17.5396 11.499 20.6826 11.952 20.1746 13.989Z" fill="white"/>
</g>
<defs>
<clipPath id="clip0_146_6317">
<rect width="32" height="32" fill="white" transform="translate(0.400391)"/>
</clipPath>
</defs>
</svg>
