<svg width="33" height="32" viewBox="0 0 33 32" fill="none" xmlns="http://www.w3.org/2000/svg">
<g clip-path="url(#clip0_146_6377)">
<path d="M16.4004 32C25.2369 32 32.4004 24.8366 32.4004 16C32.4004 7.16344 25.2369 0 16.4004 0C7.56383 0 0.400391 7.16344 0.400391 16C0.400391 24.8366 7.56383 32 16.4004 32Z" fill="#C3A634"/>
<path fill-rule="evenodd" clip-rule="evenodd" d="M13.6484 14.61H17.9624V16.896H13.6484V21.714H16.3694C17.4464 21.714 18.3274 21.569 19.0134 21.277C19.6994 20.986 20.2374 20.583 20.6284 20.067C21.0283 19.5304 21.3005 18.9097 21.4244 18.252C21.5689 17.5102 21.6392 16.7558 21.6344 16C21.6392 15.2442 21.5689 14.4898 21.4244 13.748C21.3007 13.0903 21.0284 12.4695 20.6284 11.933C20.2374 11.417 19.6984 11.014 19.0134 10.723C18.3274 10.431 17.4464 10.286 16.3694 10.286H13.6484V14.611V14.61ZM10.8824 16.896H9.40039V14.611H10.8824V8H17.4314C18.6414 8 19.6884 8.21 20.5734 8.627C21.4584 9.046 22.1804 9.617 22.7414 10.342C23.3014 11.066 23.7184 11.914 23.9914 12.885C24.2644 13.856 24.4004 14.895 24.4004 16C24.4073 17.0522 24.2693 18.1004 23.9904 19.115C23.7184 20.085 23.3014 20.934 22.7404 21.658C22.1804 22.383 21.4584 22.954 20.5734 23.373C19.6884 23.791 18.6404 24 17.4314 24H10.8824V16.896V16.896Z" fill="white"/>
</g>
<defs>
<clipPath id="clip0_146_6377">
<rect width="32" height="32" fill="white" transform="translate(0.400391)"/>
</clipPath>
</defs>
</svg>
