<svg width="33" height="32" viewBox="0 0 33 32" fill="none" xmlns="http://www.w3.org/2000/svg">
<g clip-path="url(#clip0_146_6332)">
<path fill-rule="evenodd" clip-rule="evenodd" d="M16.5371 0C19.7016 0 22.795 0.938384 25.4262 2.69649C28.0574 4.45459 30.1082 6.95345 31.3192 9.87707C32.5302 12.8007 32.847 16.0177 32.2297 19.1214C31.6123 22.2251 30.0885 25.0761 27.8508 27.3137C25.6132 29.5514 22.7623 31.0752 19.6586 31.6926C16.5549 32.3099 13.3378 31.9931 10.4142 30.7821C7.49056 29.5711 4.9917 27.5203 3.2336 24.8891C1.47549 22.2579 0.537109 19.1645 0.537109 16C0.537109 11.7565 2.22282 7.68687 5.2234 4.68629C8.22398 1.68571 12.2936 0 16.5371 0V0Z" fill="white"/>
<path fill-rule="evenodd" clip-rule="evenodd" d="M16.5371 3.43555L20.7465 9.725L24.956 16.0159L16.5371 20.2574L8.11816 15.9999L12.3276 9.709L16.5371 3.43555ZM16.5371 21.9519L8.58507 17.709L16.5371 28.5643L24.4891 17.709L16.5371 21.9519Z" fill="#343434"/>
<path fill-rule="evenodd" clip-rule="evenodd" d="M16.5371 3.43555L20.7466 9.709L24.956 15.9999L16.5371 12.8217V3.43555Z" fill="#343434"/>
<path fill-rule="evenodd" clip-rule="evenodd" d="M16.5371 21.9519L24.5051 17.709L16.5371 28.5803V21.9519Z" fill="#313131"/>
<path fill-rule="evenodd" clip-rule="evenodd" d="M16.5371 12.8218L24.956 16L16.5371 20.2414V12.8218Z" fill="#151515"/>
<path fill-rule="evenodd" clip-rule="evenodd" d="M16.5371 3.43555L12.3276 9.709L8.11816 15.9999L16.5371 12.8217V3.43555Z" fill="#8C8C8C"/>
<path fill-rule="evenodd" clip-rule="evenodd" d="M16.537 21.9519L8.58496 17.709L16.537 28.5803V21.9519Z" fill="#8A8A8A"/>
<path fill-rule="evenodd" clip-rule="evenodd" d="M16.5371 12.8218L8.11816 16L16.5371 20.2414V12.8218Z" fill="#353535"/>
</g>
<defs>
<clipPath id="clip0_146_6332">
<rect width="32" height="32" fill="white" transform="translate(0.599609)"/>
</clipPath>
</defs>
</svg>
