<svg width="33" height="32" viewBox="0 0 33 32" fill="none" xmlns="http://www.w3.org/2000/svg">
<g clip-path="url(#clip0_146_6362)">
<path d="M16.4004 32C25.2369 32 32.4004 24.8366 32.4004 16C32.4004 7.16344 25.2369 0 16.4004 0C7.56383 0 0.400391 7.16344 0.400391 16C0.400391 24.8366 7.56383 32 16.4004 32Z" fill="#23292F"/>
<path d="M23.4704 8H26.3604L20.3454 13.957C19.2938 14.9931 17.8767 15.5739 16.4004 15.5739C14.9241 15.5739 13.507 14.9931 12.4554 13.957L6.43539 8H9.33039L13.9004 12.523C14.5659 13.1799 15.4633 13.5482 16.3984 13.5482C17.3335 13.5482 18.2309 13.1799 18.8964 12.523L23.4704 8ZM9.29539 24.563H6.40039L12.4554 18.57C13.507 17.5339 14.9241 16.9531 16.4004 16.9531C17.8767 16.9531 19.2938 17.5339 20.3454 18.57L26.4004 24.562H23.5054L18.9004 20C18.2349 19.3431 17.3375 18.9748 16.4024 18.9748C15.4673 18.9748 14.5699 19.3431 13.9044 20L9.29439 24.563H9.29539Z" fill="white"/>
</g>
<defs>
<clipPath id="clip0_146_6362">
<rect width="32" height="32" fill="white" transform="translate(0.400391)"/>
</clipPath>
</defs>
</svg>
