<svg width="33" height="32" viewBox="0 0 33 32" fill="none" xmlns="http://www.w3.org/2000/svg">
<g clip-path="url(#clip0_146_6347)">
<path d="M16.5996 32C25.4362 32 32.5996 24.8366 32.5996 16C32.5996 7.16344 25.4362 0 16.5996 0C7.76305 0 0.599609 7.16344 0.599609 16C0.599609 24.8366 7.76305 32 16.5996 32Z" fill="#26A17B"/>
<path fill-rule="evenodd" clip-rule="evenodd" d="M18.5214 17.3833V17.3813C18.4114 17.3893 17.8444 17.4233 16.5794 17.4233C15.5694 17.4233 14.8584 17.3933 14.6084 17.3813V17.3843C10.7204 17.2133 7.81841 16.5363 7.81841 15.7263C7.81841 14.9173 10.7204 14.2403 14.6084 14.0663V16.7103C14.8624 16.7283 15.5904 16.7713 16.5964 16.7713C17.8034 16.7713 18.4084 16.7213 18.5214 16.7113V14.0683C22.4014 14.2413 25.2964 14.9183 25.2964 15.7263C25.2964 16.5363 22.4014 17.2113 18.5214 17.3833V17.3833ZM18.5214 13.7933V11.4273H23.9354V7.81934H9.19441V11.4273H14.6084V13.7923C10.2084 13.9943 6.89941 14.8663 6.89941 15.9103C6.89941 16.9543 10.2084 17.8253 14.6084 18.0283V25.6103H18.5214V18.0263C22.9144 17.8243 26.2154 16.9533 26.2154 15.9103C26.2154 14.8673 22.9144 13.9963 18.5214 13.7933" fill="white"/>
</g>
<defs>
<clipPath id="clip0_146_6347">
<rect width="32" height="32" fill="white" transform="translate(0.599609)"/>
</clipPath>
</defs>
</svg>
