<svg width="25" height="24" viewBox="0 0 25 24" fill="none" xmlns="http://www.w3.org/2000/svg">
<path d="M17.4001 20.75H7.40012C3.15012 20.75 1.76012 19.48 1.66012 15.52C1.66012 15.32 1.73012 15.12 1.87012 14.98C2.01012 14.84 2.20012 14.75 2.41012 14.75C3.92012 14.75 5.15012 13.51 5.15012 12C5.15012 10.49 3.92012 9.25 2.41012 9.25C2.21012 9.25 2.02012 9.17 1.87012 9.02C1.72012 8.87 1.65012 8.68 1.66012 8.48C1.76012 4.52 3.15012 3.25 7.40012 3.25H17.4001C21.8101 3.25 23.1501 4.59 23.1501 9V15C23.1501 19.41 21.8101 20.75 17.4001 20.75ZM3.19012 16.18C3.36012 18.72 4.22012 19.25 7.40012 19.25H17.4001C20.9801 19.25 21.6501 18.57 21.6501 15V9C21.6501 5.43 20.9801 4.75 17.4001 4.75H7.40012C4.22012 4.75 3.36012 5.29 3.19012 7.82C5.16012 8.2 6.65012 9.93 6.65012 12C6.65012 14.07 5.16012 15.8 3.19012 16.18Z" fill="white"/>
<path d="M9.3999 8.25C8.9899 8.25 8.6499 7.91 8.6499 7.5V4C8.6499 3.59 8.9899 3.25 9.3999 3.25C9.8099 3.25 10.1499 3.59 10.1499 4V7.5C10.1499 7.91 9.8099 8.25 9.3999 8.25Z" fill="white"/>
<path d="M9.3999 20.75C8.9899 20.75 8.6499 20.41 8.6499 20V16.5C8.6499 16.09 8.9899 15.75 9.3999 15.75C9.8099 15.75 10.1499 16.09 10.1499 16.5V20C10.1499 20.41 9.8099 20.75 9.3999 20.75Z" fill="white"/>
<path d="M13.44 15.65C13.2 15.65 12.96 15.57 12.76 15.43C12.4 15.17 12.22 14.73 12.3 14.29L12.51 13.1L11.64 12.25C11.32 11.94 11.21 11.48 11.34 11.06C11.48 10.64 11.84 10.33 12.28 10.27L13.48 10.09L14.02 9.00001C14.22 8.60001 14.62 8.35001 15.06 8.35001C15.51 8.35001 15.91 8.60001 16.1 9.00001L16.64 10.09L17.84 10.27C18.28 10.33 18.64 10.64 18.78 11.06C18.92 11.48 18.8 11.94 18.48 12.25L17.61 13.1L17.82 14.29C17.9 14.73 17.72 15.17 17.36 15.43C17 15.69 16.53 15.72 16.14 15.52L15.07 14.96L13.99 15.52C13.82 15.61 13.63 15.65 13.44 15.65ZM13.17 11.65L13.68 12.15C13.96 12.42 14.08 12.8 14.02 13.18L13.9 13.88L14.53 13.55C14.87 13.37 15.27 13.37 15.61 13.55L16.24 13.88L16.12 13.18C16.06 12.79 16.18 12.41 16.46 12.15L16.97 11.65L16.27 11.55C15.89 11.49 15.56 11.25 15.39 10.91L15.08 10.27L14.77 10.91C14.6 11.25 14.27 11.49 13.89 11.55L13.17 11.65Z" fill="white"/>
</svg>
