<svg width="25" height="24" viewBox="0 0 25 24" fill="none" xmlns="http://www.w3.org/2000/svg">
<path d="M15.2002 22.75H9.2002C3.7702 22.75 1.4502 20.43 1.4502 15V9C1.4502 3.57 3.7702 1.25 9.2002 1.25H15.2002C20.6302 1.25 22.9502 3.57 22.9502 9V15C22.9502 20.43 20.6302 22.75 15.2002 22.75ZM9.2002 2.75C4.5902 2.75 2.9502 4.39 2.9502 9V15C2.9502 19.61 4.5902 21.25 9.2002 21.25H15.2002C19.8102 21.25 21.4502 19.61 21.4502 15V9C21.4502 4.39 19.8102 2.75 15.2002 2.75H9.2002Z" fill="white"/>
<path d="M18.2002 15.25C17.7902 15.25 17.4502 14.91 17.4502 14.5C17.4502 13.81 16.8902 13.25 16.2002 13.25H8.2002C7.5102 13.25 6.9502 13.81 6.9502 14.5C6.9502 14.91 6.6102 15.25 6.2002 15.25C5.7902 15.25 5.4502 14.91 5.4502 14.5V7.75C5.4502 6.23 6.6802 5 8.2002 5H16.2002C17.7202 5 18.9502 6.23 18.9502 7.75V14.5C18.9502 14.91 18.6102 15.25 18.2002 15.25ZM8.2002 11.75H16.2002C16.6502 11.75 17.0802 11.86 17.4502 12.05V7.75C17.4502 7.06 16.8902 6.5 16.2002 6.5H8.2002C7.5102 6.5 6.9502 7.06 6.9502 7.75V12.05C7.3202 11.86 7.7502 11.75 8.2002 11.75Z" fill="white"/>
<path d="M19.2002 16.5H18.2002C17.7902 16.5 17.4502 16.16 17.4502 15.75C17.4502 15.34 17.7902 15 18.2002 15H19.2002C19.6102 15 19.9502 15.34 19.9502 15.75C19.9502 16.16 19.6102 16.5 19.2002 16.5Z" fill="white"/>
<path d="M6.2002 16.5H5.2002C4.7902 16.5 4.4502 16.16 4.4502 15.75C4.4502 15.34 4.7902 15 5.2002 15H6.2002C6.6102 15 6.9502 15.34 6.9502 15.75C6.9502 16.16 6.6102 16.5 6.2002 16.5Z" fill="white"/>
<path d="M18.2002 14.75C17.7902 14.75 17.4502 14.41 17.4502 14V11C17.4502 10.31 16.8902 9.75 16.2002 9.75H8.2002C7.5102 9.75 6.9502 10.31 6.9502 11V14C6.9502 14.41 6.6102 14.75 6.2002 14.75C5.7902 14.75 5.4502 14.41 5.4502 14V11C5.4502 9.48 6.6802 8.25 8.2002 8.25H16.2002C17.7202 8.25 18.9502 9.48 18.9502 11V14C18.9502 14.41 18.6102 14.75 18.2002 14.75Z" fill="white"/>
<path d="M12.2002 19C10.6702 19 9.38022 17.93 9.04022 16.5H6.2002C5.7902 16.5 5.4502 16.16 5.4502 15.75V14.5C5.4502 12.98 6.6802 11.75 8.2002 11.75H16.2002C17.7202 11.75 18.9502 12.98 18.9502 14.5V15.75C18.9502 16.16 18.6102 16.5 18.2002 16.5H15.3602C15.0202 17.93 13.7302 19 12.2002 19ZM6.9502 15H9.7002C10.1102 15 10.4502 15.34 10.4502 15.75C10.4502 16.71 11.2402 17.5 12.2002 17.5C13.1602 17.5 13.9502 16.71 13.9502 15.75C13.9502 15.34 14.2902 15 14.7002 15H17.4502V14.5C17.4502 13.81 16.8902 13.25 16.2002 13.25H8.2002C7.5102 13.25 6.9502 13.81 6.9502 14.5V15Z" fill="white"/>
</svg>
