<svg width="25" height="24" viewBox="0 0 25 24" fill="none" xmlns="http://www.w3.org/2000/svg">
<path d="M16.0398 9.25H2.7998C2.3898 9.25 2.0498 8.91 2.0498 8.5C2.0498 8.09 2.3898 7.75 2.7998 7.75H16.0398C16.4498 7.75 16.7898 8.09 16.7898 8.5C16.7898 8.91 16.4498 9.25 16.0398 9.25Z" fill="white"/>
<path d="M8.0898 17.25H6.7998C6.3898 17.25 6.0498 16.91 6.0498 16.5C6.0498 16.09 6.3898 15.75 6.7998 15.75H8.0898C8.4998 15.75 8.8398 16.09 8.8398 16.5C8.8398 16.91 8.5098 17.25 8.0898 17.25Z" fill="white"/>
<path d="M15.2998 17.25H11.7998C11.3898 17.25 11.0498 16.91 11.0498 16.5C11.0498 16.09 11.3898 15.75 11.7998 15.75H15.2998C15.7098 15.75 16.0498 16.09 16.0498 16.5C16.0498 16.91 15.7098 17.25 15.2998 17.25Z" fill="white"/>
<path d="M18.3598 21.25H8.77979C8.36979 21.25 8.02979 20.91 8.02979 20.5C8.02979 20.09 8.36979 19.75 8.77979 19.75H18.3598C21.4998 19.75 22.0498 19.21 22.0498 16.11V6.89001C22.0498 6.48001 22.3898 6.14001 22.7998 6.14001C23.2098 6.14001 23.5498 6.48001 23.5498 6.89001V16.1C23.5498 20.05 22.3398 21.25 18.3598 21.25Z" fill="white"/>
<path d="M4.5098 20.89C4.4198 20.89 4.3198 20.87 4.2298 20.84C2.4198 20.12 2.0498 18.43 2.0498 16.11V7.89C2.0498 3.95 3.2598 2.75 7.2398 2.75H18.3498C19.4898 2.75 20.3298 2.84 20.9898 3.04C21.3898 3.16 21.6098 3.57 21.4998 3.97C21.3798 4.37 20.9598 4.59 20.5698 4.48C20.0498 4.33 19.3498 4.26 18.3498 4.26H7.2398C4.0998 4.26 3.5498 4.8 3.5498 7.9V16.11C3.5498 18.5 3.9798 19.13 4.7898 19.45C5.1798 19.6 5.3598 20.04 5.2098 20.42C5.0898 20.71 4.8098 20.89 4.5098 20.89Z" fill="white"/>
<path d="M2.79975 22.75C2.60975 22.75 2.41975 22.68 2.26975 22.53C1.97975 22.24 1.97975 21.76 2.26975 21.47L22.2697 1.47C22.5597 1.18 23.0397 1.18 23.3297 1.47C23.6197 1.76 23.6197 2.24 23.3297 2.53L3.32975 22.53C3.17975 22.68 2.98975 22.75 2.79975 22.75Z" fill="white"/>
</svg>
