<svg width="25" height="24" viewBox="0 0 25 24" fill="none" xmlns="http://www.w3.org/2000/svg">
<path d="M14.1001 9.25H2.6001C2.1901 9.25 1.8501 8.91 1.8501 8.5C1.8501 8.09 2.1901 7.75 2.6001 7.75H14.1001C14.5101 7.75 14.8501 8.09 14.8501 8.5C14.8501 8.91 14.5101 9.25 14.1001 9.25Z" fill="white"/>
<path d="M8.6001 17.25H6.6001C6.1901 17.25 5.8501 16.91 5.8501 16.5C5.8501 16.09 6.1901 15.75 6.6001 15.75H8.6001C9.0101 15.75 9.3501 16.09 9.3501 16.5C9.3501 16.91 9.0101 17.25 8.6001 17.25Z" fill="white"/>
<path d="M15.1001 17.25H11.1001C10.6901 17.25 10.3501 16.91 10.3501 16.5C10.3501 16.09 10.6901 15.75 11.1001 15.75H15.1001C15.5101 15.75 15.8501 16.09 15.8501 16.5C15.8501 16.91 15.5101 17.25 15.1001 17.25Z" fill="white"/>
<path d="M18.1601 21.25H7.0401C3.0601 21.25 1.8501 20.05 1.8501 16.11V7.89C1.8501 3.95 3.0601 2.75 7.0401 2.75H14.1001C14.5101 2.75 14.8501 3.09 14.8501 3.5C14.8501 3.91 14.5101 4.25 14.1001 4.25H7.0401C3.9001 4.25 3.3501 4.79 3.3501 7.89V16.1C3.3501 19.2 3.9001 19.74 7.0401 19.74H18.1501C21.2901 19.74 21.8401 19.2 21.8401 16.1V11.02C21.8401 10.61 22.1801 10.27 22.5901 10.27C23.0001 10.27 23.3401 10.61 23.3401 11.02V16.1C23.3501 20.05 22.1401 21.25 18.1601 21.25Z" fill="white"/>
<path d="M18.6 8.25C18.41 8.25 18.22 8.18 18.07 8.03L16.57 6.53C16.28 6.24 16.28 5.76 16.57 5.47C16.86 5.18 17.34 5.18 17.63 5.47L18.6 6.44L22.07 2.97C22.36 2.68 22.84 2.68 23.13 2.97C23.42 3.26 23.42 3.74 23.13 4.03L19.13 8.03C18.98 8.18 18.79 8.25 18.6 8.25Z" fill="white"/>
</svg>
