<svg width="25" height="24" viewBox="0 0 25 24" fill="none" xmlns="http://www.w3.org/2000/svg">
<path d="M22.2002 9.25H2.2002C1.7902 9.25 1.4502 8.91 1.4502 8.5C1.4502 8.09 1.7902 7.75 2.2002 7.75H22.2002C22.6102 7.75 22.9502 8.09 22.9502 8.5C22.9502 8.91 22.6102 9.25 22.2002 9.25Z" fill="white"/>
<path d="M8.2002 17.25H6.2002C5.7902 17.25 5.4502 16.91 5.4502 16.5C5.4502 16.09 5.7902 15.75 6.2002 15.75H8.2002C8.6102 15.75 8.9502 16.09 8.9502 16.5C8.9502 16.91 8.6102 17.25 8.2002 17.25Z" fill="white"/>
<path d="M14.7002 17.25H10.7002C10.2902 17.25 9.9502 16.91 9.9502 16.5C9.9502 16.09 10.2902 15.75 10.7002 15.75H14.7002C15.1102 15.75 15.4502 16.09 15.4502 16.5C15.4502 16.91 15.1102 17.25 14.7002 17.25Z" fill="white"/>
<path d="M17.7602 21.25H6.6402C2.6602 21.25 1.4502 20.05 1.4502 16.11V7.89C1.4502 3.95 2.6602 2.75 6.6402 2.75H17.7502C21.7302 2.75 22.9402 3.95 22.9402 7.89V16.1C22.9502 20.05 21.7402 21.25 17.7602 21.25ZM6.6402 4.25C3.5002 4.25 2.9502 4.79 2.9502 7.89V16.1C2.9502 19.2 3.5002 19.74 6.6402 19.74H17.7502C20.8902 19.74 21.4402 19.2 21.4402 16.1V7.89C21.4402 4.79 20.8902 4.25 17.7502 4.25H6.6402Z" fill="white"/>
</svg>
