<svg width="25" height="24" viewBox="0 0 25 24" fill="none" xmlns="http://www.w3.org/2000/svg">
<path d="M14.8999 9.25H2.3999C1.9899 9.25 1.6499 8.91 1.6499 8.5C1.6499 8.09 1.9899 7.75 2.3999 7.75H14.8999C15.3099 7.75 15.6499 8.09 15.6499 8.5C15.6499 8.91 15.3099 9.25 14.8999 9.25Z" fill="white"/>
<path d="M8.3999 17.25H6.3999C5.9899 17.25 5.6499 16.91 5.6499 16.5C5.6499 16.09 5.9899 15.75 6.3999 15.75H8.3999C8.8099 15.75 9.1499 16.09 9.1499 16.5C9.1499 16.91 8.8099 17.25 8.3999 17.25Z" fill="white"/>
<path d="M14.8999 17.25H10.8999C10.4899 17.25 10.1499 16.91 10.1499 16.5C10.1499 16.09 10.4899 15.75 10.8999 15.75H14.8999C15.3099 15.75 15.6499 16.09 15.6499 16.5C15.6499 16.91 15.3099 17.25 14.8999 17.25Z" fill="white"/>
<path d="M17.9599 21.25H6.8399C2.8599 21.25 1.6499 20.05 1.6499 16.11V7.89C1.6499 3.95 2.8599 2.75 6.8399 2.75H14.8999C15.3099 2.75 15.6499 3.09 15.6499 3.5C15.6499 3.91 15.3099 4.25 14.8999 4.25H6.8399C3.6999 4.25 3.1499 4.79 3.1499 7.89V16.1C3.1499 19.2 3.6999 19.74 6.8399 19.74H17.9499C21.0899 19.74 21.6399 19.2 21.6399 16.1V14.02C21.6399 13.61 21.9799 13.27 22.3899 13.27C22.7999 13.27 23.1399 13.61 23.1399 14.02V16.1C23.1499 20.05 21.9399 21.25 17.9599 21.25Z" fill="white"/>
<path d="M20.3999 10.25C20.2999 10.25 20.2099 10.23 20.1099 10.19C19.8299 10.07 19.6499 9.8 19.6499 9.5V3.5C19.6499 3.09 19.9899 2.75 20.3999 2.75C20.8099 2.75 21.1499 3.09 21.1499 3.5V7.69L21.8699 6.97C22.1599 6.68 22.6399 6.68 22.9299 6.97C23.2199 7.26 23.2199 7.74 22.9299 8.03L20.9299 10.03C20.7899 10.17 20.5999 10.25 20.3999 10.25Z" fill="white"/>
<path d="M20.3998 10.25C20.2098 10.25 20.0198 10.18 19.8698 10.03L17.8698 8.03C17.5798 7.74 17.5798 7.26 17.8698 6.97C18.1598 6.68 18.6398 6.68 18.9298 6.97L20.9298 8.97C21.2198 9.26 21.2198 9.74 20.9298 10.03C20.7798 10.18 20.5898 10.25 20.3998 10.25Z" fill="white"/>
</svg>
