<svg width="25" height="24" viewBox="0 0 25 24" fill="none" xmlns="http://www.w3.org/2000/svg">
<path d="M11.6398 13.54H10.1398C8.9898 13.54 8.0598 12.58 8.0598 11.39C8.0598 10.98 8.3998 10.64 8.8098 10.64C9.2198 10.64 9.5598 10.98 9.5598 11.39C9.5598 11.75 9.8198 12.04 10.1398 12.04H11.6398C11.8698 12.04 12.0498 11.83 12.0498 11.57C12.0498 11.22 11.9898 11.2 11.7598 11.12L9.3498 10.28C8.4798 9.98001 8.0498 9.37001 8.0498 8.42001C8.0498 7.34001 8.9098 6.45001 9.9598 6.45001H11.4598C12.6098 6.45001 13.5398 7.41001 13.5398 8.60001C13.5398 9.01001 13.1998 9.35001 12.7898 9.35001C12.3798 9.35001 12.0398 9.01001 12.0398 8.60001C12.0398 8.24001 11.7798 7.95001 11.4598 7.95001H9.9598C9.7298 7.95001 9.5498 8.16001 9.5498 8.42001C9.5498 8.77001 9.6098 8.79001 9.8398 8.87001L12.2498 9.71001C13.1198 10.02 13.5398 10.63 13.5398 11.57C13.5498 12.66 12.6898 13.54 11.6398 13.54Z" fill="white"/>
<path d="M10.7998 14.34C10.3898 14.34 10.0498 14 10.0498 13.59V12.85C10.0498 12.44 10.3898 12.1 10.7998 12.1C11.2098 12.1 11.5498 12.44 11.5498 12.85V13.59C11.5498 14.01 11.2098 14.34 10.7998 14.34Z" fill="white"/>
<path d="M10.7998 7.93997C10.3898 7.93997 10.0498 7.59997 10.0498 7.18997V6.40997C10.0498 5.99997 10.3898 5.65997 10.7998 5.65997C11.2098 5.65997 11.5498 5.99997 11.5498 6.40997V7.18997C11.5498 7.59997 11.2098 7.93997 10.7998 7.93997Z" fill="white"/>
<path d="M10.7898 18.72C5.9698 18.72 2.0498 14.8 2.0498 9.97999C2.0498 5.15999 5.9698 1.23999 10.7898 1.23999C15.6098 1.23999 19.5298 5.15999 19.5298 9.97999C19.5298 14.8 15.5998 18.72 10.7898 18.72ZM10.7898 2.74999C6.7998 2.74999 3.5498 5.99999 3.5498 9.98999C3.5498 13.98 6.7998 17.22 10.7898 17.22C14.7798 17.22 18.0298 13.97 18.0298 9.97999C18.0298 5.98999 14.7798 2.74999 10.7898 2.74999Z" fill="white"/>
<path d="M17.8198 22.72C15.9698 22.72 14.2298 21.82 13.1598 20.3C12.9198 19.96 12.9998 19.49 13.3398 19.25C13.6798 19.01 14.1498 19.09 14.3898 19.43C15.1798 20.55 16.4598 21.21 17.8198 21.21C20.1398 21.21 22.0198 19.33 22.0198 17.01C22.0198 15.66 21.3598 14.38 20.2598 13.59C19.9198 13.35 19.8498 12.88 20.0898 12.54C20.3298 12.2 20.7998 12.13 21.1398 12.37C22.6298 13.44 23.5198 15.17 23.5198 17.01C23.5198 20.17 20.9698 22.72 17.8198 22.72Z" fill="white"/>
</svg>
