<svg width="25" height="24" viewBox="0 0 25 24" fill="none" xmlns="http://www.w3.org/2000/svg">
<path d="M13.6004 17.42H11.0904C9.45035 17.42 8.12035 16.04 8.12035 14.34C8.12035 13.93 8.46035 13.59 8.87035 13.59C9.28035 13.59 9.62035 13.93 9.62035 14.34C9.62035 15.21 10.2804 15.92 11.0904 15.92H13.6004C14.2504 15.92 14.7904 15.34 14.7904 14.64C14.7904 13.77 14.4804 13.6 13.9704 13.42L9.94035 12C9.16035 11.73 8.11035 11.15 8.11035 9.35999C8.11035 7.81999 9.32035 6.57999 10.8004 6.57999H13.3104C14.9504 6.57999 16.2804 7.95999 16.2804 9.65999C16.2804 10.07 15.9404 10.41 15.5304 10.41C15.1204 10.41 14.7804 10.07 14.7804 9.65999C14.7804 8.78999 14.1204 8.07999 13.3104 8.07999H10.8004C10.1504 8.07999 9.61035 8.65999 9.61035 9.35999C9.61035 10.23 9.92035 10.4 10.4304 10.58L14.4604 12C15.2404 12.27 16.2904 12.85 16.2904 14.64C16.2804 16.17 15.0804 17.42 13.6004 17.42Z" fill="white"/>
<path d="M12.2002 18.75C11.7902 18.75 11.4502 18.41 11.4502 18V6C11.4502 5.59 11.7902 5.25 12.2002 5.25C12.6102 5.25 12.9502 5.59 12.9502 6V18C12.9502 18.41 12.6102 18.75 12.2002 18.75Z" fill="white"/>
<path d="M15.2002 22.75H9.2002C3.7702 22.75 1.4502 20.43 1.4502 15V9C1.4502 3.57 3.7702 1.25 9.2002 1.25H15.2002C20.6302 1.25 22.9502 3.57 22.9502 9V15C22.9502 20.43 20.6302 22.75 15.2002 22.75ZM9.2002 2.75C4.5902 2.75 2.9502 4.39 2.9502 9V15C2.9502 19.61 4.5902 21.25 9.2002 21.25H15.2002C19.8102 21.25 21.4502 19.61 21.4502 15V9C21.4502 4.39 19.8102 2.75 15.2002 2.75H9.2002Z" fill="white"/>
</svg>
