<svg width="25" height="24" viewBox="0 0 25 24" fill="none" xmlns="http://www.w3.org/2000/svg">
<path d="M18.1399 22.75H8.03992C7.72992 22.75 7.44992 22.56 7.33992 22.26C7.22992 21.96 7.30991 21.64 7.54991 21.43C8.24991 20.81 8.65991 19.92 8.65991 18.99C8.65991 17.2 7.19991 15.74 5.40991 15.74C4.66991 15.74 3.96991 15.99 3.37991 16.46C3.14991 16.64 2.84992 16.67 2.58992 16.55C2.32992 16.43 2.16992 16.16 2.16992 15.87V11.5C2.16992 9.01 4.18992 6.98999 6.67992 6.98999H18.1599C20.6499 6.98999 22.6699 9.01 22.6699 11.5V12.94C22.6699 13.35 22.3299 13.69 21.9199 13.69H19.8999C19.5499 13.69 19.2299 13.82 18.9999 14.06L18.9899 14.07C18.7099 14.34 18.5799 14.71 18.6099 15.09C18.6699 15.75 19.2999 16.28 20.0199 16.28H21.9199C22.3299 16.28 22.6699 16.62 22.6699 17.03V18.22C22.6499 20.73 20.6299 22.75 18.1399 22.75ZM9.57991 21.25H18.1399C19.7999 21.25 21.1499 19.9 21.1499 18.24V17.8H19.9999C18.4899 17.8 17.2099 16.68 17.0899 15.24C17.0099 14.42 17.3099 13.61 17.9099 13.02C18.4299 12.49 19.1299 12.2 19.8799 12.2H21.1499V11.51C21.1499 9.85001 19.7999 8.5 18.1399 8.5H6.65991C4.99991 8.5 3.64992 9.85001 3.64992 11.51V14.59C4.20992 14.37 4.79992 14.25 5.39992 14.25C8.01992 14.25 10.1499 16.38 10.1499 19C10.1499 19.79 9.94991 20.57 9.57991 21.25Z" fill="white"/>
<path d="M2.8999 12.2601C2.4899 12.2601 2.1499 11.9201 2.1499 11.5101V7.84011C2.1499 6.35011 3.07991 4.99005 4.46991 4.47005L12.4099 1.47005C13.2299 1.17005 14.1499 1.28011 14.8599 1.78011C15.5699 2.28011 15.9999 3.09009 15.9999 3.95009V7.75008C15.9999 8.16008 15.6599 8.50008 15.2499 8.50008C14.8399 8.50008 14.4999 8.16008 14.4999 7.75008V3.95009C14.4999 3.57009 14.3199 3.23009 14.0099 3.01009C13.6899 2.79009 13.2999 2.74008 12.9399 2.87008L4.99991 5.87008C4.17991 6.18008 3.6499 6.95011 3.6499 7.84011V11.5101C3.6499 11.9201 3.3099 12.2601 2.8999 12.2601Z" fill="white"/>
<path d="M19.9999 17.7999C18.4899 17.7999 17.2099 16.6799 17.0899 15.2399C17.0099 14.4099 17.3099 13.5999 17.9099 13.0099C18.4199 12.4899 19.1199 12.2 19.8699 12.2H21.9499C22.9399 12.23 23.6999 13.0099 23.6999 13.9699V16.03C23.6999 16.99 22.9399 17.7699 21.9799 17.7999H19.9999ZM21.9299 13.7H19.8799C19.5299 13.7 19.2099 13.8299 18.9799 14.0699C18.6899 14.3499 18.5499 14.7299 18.5899 15.1099C18.6499 15.7699 19.2799 16.2999 19.9999 16.2999H21.9599C22.0899 16.2999 22.2099 16.18 22.2099 16.03V13.9699C22.2099 13.8199 22.0899 13.71 21.9299 13.7Z" fill="white"/>
<path d="M14.3999 12.75H7.3999C6.9899 12.75 6.6499 12.41 6.6499 12C6.6499 11.59 6.9899 11.25 7.3999 11.25H14.3999C14.8099 11.25 15.1499 11.59 15.1499 12C15.1499 12.41 14.8099 12.75 14.3999 12.75Z" fill="white"/>
<path d="M5.3999 23.75C2.7799 23.75 0.649902 21.62 0.649902 19C0.649902 17.54 1.2999 16.19 2.4299 15.29C3.2699 14.62 4.3299 14.25 5.3999 14.25C8.0199 14.25 10.1499 16.38 10.1499 19C10.1499 20.36 9.5599 21.66 8.5399 22.56C7.6599 23.33 6.5499 23.75 5.3999 23.75ZM5.3999 15.75C4.6599 15.75 3.9599 16 3.3699 16.47C2.5999 17.08 2.1499 18.01 2.1499 19C2.1499 20.79 3.6099 22.25 5.3999 22.25C6.1799 22.25 6.9399 21.96 7.5499 21.44C8.2499 20.82 8.6499 19.94 8.6499 19C8.6499 17.21 7.1899 15.75 5.3999 15.75Z" fill="white"/>
<path d="M4.39979 20.75C4.14979 20.75 3.89979 20.62 3.75979 20.39C3.54979 20.03 3.65978 19.57 4.01978 19.36L4.90978 18.83V17.75C4.90978 17.34 5.24978 17 5.65978 17C6.06978 17 6.40978 17.34 6.40978 17.75V19.25C6.40978 19.51 6.26978 19.76 6.04978 19.89L4.79978 20.64C4.66978 20.72 4.52979 20.75 4.39979 20.75Z" fill="white"/>
</svg>
