<svg width="25" height="24" viewBox="0 0 25 24" fill="none" xmlns="http://www.w3.org/2000/svg">
<path d="M12.2002 15.25C10.4102 15.25 8.9502 13.79 8.9502 12C8.9502 10.21 10.4102 8.75 12.2002 8.75C13.9902 8.75 15.4502 10.21 15.4502 12C15.4502 13.79 13.9902 15.25 12.2002 15.25ZM12.2002 10.25C11.2402 10.25 10.4502 11.04 10.4502 12C10.4502 12.96 11.2402 13.75 12.2002 13.75C13.1602 13.75 13.9502 12.96 13.9502 12C13.9502 11.04 13.1602 10.25 12.2002 10.25Z" fill="white"/>
<path d="M18.7002 15.25C18.2902 15.25 17.9502 14.91 17.9502 14.5V9.5C17.9502 9.09 18.2902 8.75 18.7002 8.75C19.1102 8.75 19.4502 9.09 19.4502 9.5V14.5C19.4502 14.91 19.1102 15.25 18.7002 15.25Z" fill="white"/>
<path d="M5.2002 22.75C3.5402 22.75 1.9802 21.87 1.1402 20.44C0.690198 19.72 0.450195 18.87 0.450195 18C0.450195 15.38 2.5802 13.25 5.2002 13.25C7.8202 13.25 9.9502 15.38 9.9502 18C9.9502 18.87 9.71019 19.72 9.26019 20.45C8.42019 21.87 6.8602 22.75 5.2002 22.75ZM5.2002 14.75C3.4102 14.75 1.9502 16.21 1.9502 18C1.9502 18.59 2.1102 19.17 2.4202 19.67C3.0002 20.65 4.0702 21.25 5.2002 21.25C6.3302 21.25 7.40019 20.65 7.98019 19.68C8.29019 19.17 8.4502 18.6 8.4502 18C8.4502 16.21 6.9902 14.75 5.2002 14.75Z" fill="white"/>
<path d="M6.69995 18.73H3.70996C3.29996 18.73 2.95996 18.39 2.95996 17.98C2.95996 17.57 3.29996 17.23 3.70996 17.23H6.69995C7.10995 17.23 7.44995 17.57 7.44995 17.98C7.44995 18.39 7.10995 18.73 6.69995 18.73Z" fill="white"/>
<path d="M5.2002 20.26C4.7902 20.26 4.4502 19.92 4.4502 19.51V16.52C4.4502 16.11 4.7902 15.77 5.2002 15.77C5.6102 15.77 5.9502 16.11 5.9502 16.52V19.51C5.9502 19.93 5.6102 20.26 5.2002 20.26Z" fill="white"/>
<path d="M17.2002 20.75H8.7002C8.2902 20.75 7.9502 20.41 7.9502 20C7.9502 19.59 8.2902 19.25 8.7002 19.25H17.2002C20.0602 19.25 21.4502 17.86 21.4502 15V9C21.4502 6.14 20.0602 4.75 17.2002 4.75H7.2002C4.3402 4.75 2.9502 6.14 2.9502 9V15.3C2.9502 15.71 2.6102 16.05 2.2002 16.05C1.7902 16.05 1.4502 15.71 1.4502 15.3V9C1.4502 5.35 3.5502 3.25 7.2002 3.25H17.2002C20.8502 3.25 22.9502 5.35 22.9502 9V15C22.9502 18.65 20.8502 20.75 17.2002 20.75Z" fill="white"/>
</svg>
