<svg width="25" height="24" viewBox="0 0 25 24" fill="none" xmlns="http://www.w3.org/2000/svg">
<path d="M17.6001 21.25H7.6001C3.9501 21.25 1.8501 19.15 1.8501 15.5V8.5C1.8501 4.85 3.9501 2.75 7.6001 2.75H17.6001C21.2501 2.75 23.3501 4.85 23.3501 8.5V15.5C23.3501 19.15 21.2501 21.25 17.6001 21.25ZM7.6001 4.25C4.7401 4.25 3.3501 5.64 3.3501 8.5V15.5C3.3501 18.36 4.7401 19.75 7.6001 19.75H17.6001C20.4601 19.75 21.8501 18.36 21.8501 15.5V8.5C21.8501 5.64 20.4601 4.25 17.6001 4.25H7.6001Z" fill="white"/>
<path d="M12.6001 15.75C10.5301 15.75 8.8501 14.07 8.8501 12C8.8501 9.93 10.5301 8.25 12.6001 8.25C14.6701 8.25 16.3501 9.93 16.3501 12C16.3501 14.07 14.6701 15.75 12.6001 15.75ZM12.6001 9.75C11.3601 9.75 10.3501 10.76 10.3501 12C10.3501 13.24 11.3601 14.25 12.6001 14.25C13.8401 14.25 14.8501 13.24 14.8501 12C14.8501 10.76 13.8401 9.75 12.6001 9.75Z" fill="white"/>
<path d="M5.1001 10.75C4.6901 10.75 4.3501 10.41 4.3501 10V8.5C4.3501 6.71 5.8101 5.25 7.6001 5.25H9.1001C9.5101 5.25 9.8501 5.59 9.8501 6C9.8501 6.41 9.5101 6.75 9.1001 6.75H7.6001C6.6401 6.75 5.8501 7.54 5.8501 8.5V10C5.8501 10.41 5.5101 10.75 5.1001 10.75Z" fill="white"/>
<path d="M20.1001 10.75C19.6901 10.75 19.3501 10.41 19.3501 10V8.5C19.3501 7.54 18.5601 6.75 17.6001 6.75H16.1001C15.6901 6.75 15.3501 6.41 15.3501 6C15.3501 5.59 15.6901 5.25 16.1001 5.25H17.6001C19.3901 5.25 20.8501 6.71 20.8501 8.5V10C20.8501 10.41 20.5101 10.75 20.1001 10.75Z" fill="white"/>
<path d="M9.1001 18.75H7.6001C5.8101 18.75 4.3501 17.29 4.3501 15.5V14C4.3501 13.59 4.6901 13.25 5.1001 13.25C5.5101 13.25 5.8501 13.59 5.8501 14V15.5C5.8501 16.46 6.6401 17.25 7.6001 17.25H9.1001C9.5101 17.25 9.8501 17.59 9.8501 18C9.8501 18.41 9.5101 18.75 9.1001 18.75Z" fill="white"/>
<path d="M17.6001 18.75H16.1001C15.6901 18.75 15.3501 18.41 15.3501 18C15.3501 17.59 15.6901 17.25 16.1001 17.25H17.6001C18.5601 17.25 19.3501 16.46 19.3501 15.5V14C19.3501 13.59 19.6901 13.25 20.1001 13.25C20.5101 13.25 20.8501 13.59 20.8501 14V15.5C20.8501 17.29 19.3901 18.75 17.6001 18.75Z" fill="white"/>
</svg>
