<svg width="25" height="24" viewBox="0 0 25 24" fill="none" xmlns="http://www.w3.org/2000/svg">
<path d="M17.6001 20.75H9.1001C8.6901 20.75 8.3501 20.41 8.3501 20C8.3501 19.59 8.6901 19.25 9.1001 19.25H17.6001C20.4601 19.25 21.8501 17.86 21.8501 15V9C21.8501 6.14 20.4601 4.75 17.6001 4.75H7.6001C4.7401 4.75 3.3501 6.14 3.3501 9V15.2C3.3501 15.61 3.0101 15.95 2.6001 15.95C2.1901 15.95 1.8501 15.61 1.8501 15.2V9C1.8501 5.35 3.9501 3.25 7.6001 3.25H17.6001C21.2501 3.25 23.3501 5.35 23.3501 9V15C23.3501 18.65 21.2501 20.75 17.6001 20.75Z" fill="white"/>
<path d="M12.6001 15.25C10.8101 15.25 9.3501 13.79 9.3501 12C9.3501 10.21 10.8101 8.75 12.6001 8.75C14.3901 8.75 15.8501 10.21 15.8501 12C15.8501 13.79 14.3901 15.25 12.6001 15.25ZM12.6001 10.25C11.6401 10.25 10.8501 11.04 10.8501 12C10.8501 12.96 11.6401 13.75 12.6001 13.75C13.5601 13.75 14.3501 12.96 14.3501 12C14.3501 11.04 13.5601 10.25 12.6001 10.25Z" fill="white"/>
<path d="M19.1001 15.25C18.6901 15.25 18.3501 14.91 18.3501 14.5V9.5C18.3501 9.09 18.6901 8.75 19.1001 8.75C19.5101 8.75 19.8501 9.09 19.8501 9.5V14.5C19.8501 14.91 19.5101 15.25 19.1001 15.25Z" fill="white"/>
<path d="M5.6001 22.75C3.9401 22.75 2.3801 21.87 1.5401 20.44C1.0901 19.72 0.850098 18.87 0.850098 18C0.850098 15.38 2.9801 13.25 5.6001 13.25C8.2201 13.25 10.3501 15.38 10.3501 18C10.3501 18.87 10.1101 19.72 9.6601 20.45C8.8201 21.87 7.2601 22.75 5.6001 22.75ZM5.6001 14.75C3.8101 14.75 2.3501 16.21 2.3501 18C2.3501 18.59 2.51007 19.17 2.82007 19.67C3.40007 20.65 4.4701 21.25 5.6001 21.25C6.7301 21.25 7.80013 20.65 8.38013 19.68C8.69013 19.17 8.8501 18.6 8.8501 18C8.8501 16.21 7.3901 14.75 5.6001 14.75Z" fill="white"/>
<path d="M2.85007 21.5C2.66007 21.5 2.47004 21.43 2.32004 21.28C2.03004 20.99 2.03004 20.5099 2.32004 20.2199L7.82004 14.7199C8.11004 14.4299 8.5901 14.4299 8.8801 14.7199C9.1701 15.0099 9.1701 15.49 8.8801 15.78L3.3801 21.28C3.2301 21.43 3.04007 21.5 2.85007 21.5Z" fill="white"/>
</svg>
