<svg width="25" height="24" viewBox="0 0 25 24" fill="none" xmlns="http://www.w3.org/2000/svg">
<path d="M15.3999 22.75H9.3999C3.9699 22.75 1.6499 20.43 1.6499 15V9C1.6499 3.57 3.9699 1.25 9.3999 1.25H15.3999C20.8299 1.25 23.1499 3.57 23.1499 9V15C23.1499 20.43 20.8299 22.75 15.3999 22.75ZM9.3999 2.75C4.7899 2.75 3.1499 4.39 3.1499 9V15C3.1499 19.61 4.7899 21.25 9.3999 21.25H15.3999C20.0099 21.25 21.6499 19.61 21.6499 15V9C21.6499 4.39 20.0099 2.75 15.3999 2.75H9.3999Z" fill="white"/>
<path d="M8.96967 16.02C8.77967 16.02 8.58967 15.95 8.43967 15.8C8.14967 15.51 8.14967 15.03 8.43967 14.74L14.9897 8.19003C15.2797 7.90003 15.7597 7.90003 16.0497 8.19003C16.3397 8.48003 16.3397 8.96003 16.0497 9.25003L9.49967 15.8C9.34967 15.95 9.15967 16.02 8.96967 16.02Z" fill="white"/>
<path d="M9.37991 11.11C8.28991 11.11 7.3999 10.22 7.3999 9.13004C7.3999 8.04004 8.28991 7.15002 9.37991 7.15002C10.4699 7.15002 11.3599 8.04004 11.3599 9.13004C11.3599 10.22 10.4699 11.11 9.37991 11.11ZM9.37991 8.66003C9.11991 8.66003 8.8999 8.87005 8.8999 9.14005C8.8999 9.41005 9.10991 9.62003 9.37991 9.62003C9.64991 9.62003 9.85989 9.41005 9.85989 9.14005C9.85989 8.87005 9.63991 8.66003 9.37991 8.66003Z" fill="white"/>
<path d="M15.9199 16.84C14.8299 16.84 13.9399 15.95 13.9399 14.86C13.9399 13.77 14.8299 12.88 15.9199 12.88C17.0099 12.88 17.8999 13.77 17.8999 14.86C17.8999 15.95 17.0099 16.84 15.9199 16.84ZM15.9199 14.39C15.6599 14.39 15.4399 14.6 15.4399 14.87C15.4399 15.14 15.6499 15.35 15.9199 15.35C16.1899 15.35 16.3999 15.14 16.3999 14.87C16.3999 14.6 16.1899 14.39 15.9199 14.39Z" fill="white"/>
</svg>
