<svg width="25" height="24" viewBox="0 0 25 24" fill="none" xmlns="http://www.w3.org/2000/svg">
<path d="M19.8199 11.75H16.3999C15.9899 11.75 15.6499 11.41 15.6499 11V4.01C15.6499 3.27 15.9399 2.58 16.4599 2.06C16.9799 1.54 17.6699 1.25 18.4099 1.25H18.4199C19.6699 1.26 20.8499 1.75 21.7499 2.64C22.6499 3.55 23.1399 4.75 23.1399 6V8.42C23.1499 10.41 21.8099 11.75 19.8199 11.75ZM17.1499 10.25H19.8199C20.9799 10.25 21.6499 9.58 21.6499 8.42V6C21.6499 5.14 21.3099 4.32 20.6999 3.7C20.0899 3.1 19.2699 2.76 18.4199 2.75C18.4199 2.75 18.4199 2.75 18.4099 2.75C18.0799 2.75 17.7599 2.88 17.5199 3.12C17.2799 3.36 17.1499 3.67 17.1499 4.01V10.25Z" fill="white"/>
<path d="M9.39967 23.33C8.92967 23.33 8.48967 23.15 8.15967 22.81L6.49966 21.14C6.40966 21.05 6.26966 21.04 6.16966 21.12L4.45966 22.4C3.92966 22.8 3.22967 22.87 2.62967 22.57C2.02967 22.27 1.65967 21.67 1.65967 21V6C1.65967 2.98 3.38967 1.25 6.40967 1.25H18.4097C18.8197 1.25 19.1597 1.59 19.1597 2C19.1597 2.41 18.8197 2.75 18.4097 2.75C17.7197 2.75 17.1597 3.31 17.1597 4V21C17.1597 21.67 16.7897 22.27 16.1897 22.57C15.5897 22.87 14.8897 22.81 14.3597 22.41L12.6497 21.13C12.5497 21.05 12.4097 21.07 12.3297 21.15L10.6497 22.83C10.3097 23.15 9.86967 23.33 9.39967 23.33ZM6.30967 19.57C6.76967 19.57 7.21967 19.74 7.55967 20.09L9.21967 21.76C9.27967 21.82 9.35967 21.83 9.39967 21.83C9.38967 21.81 9.51967 21.82 9.57967 21.76L11.2597 20.08C11.8797 19.46 12.8597 19.4 13.5497 19.93L15.2497 21.2C15.3597 21.28 15.4597 21.25 15.5097 21.22C15.5597 21.19 15.6497 21.13 15.6497 21V4C15.6497 3.55 15.7597 3.12 15.9497 2.75H6.39967C4.17967 2.75 3.14967 3.78 3.14967 6V21C3.14967 21.14 3.23967 21.2 3.28967 21.23C3.34967 21.26 3.44967 21.28 3.54967 21.2L5.25967 19.92C5.56967 19.69 5.93967 19.57 6.30967 19.57Z" fill="white"/>
<path d="M12.1499 10.75H6.6499C6.2399 10.75 5.8999 10.41 5.8999 10C5.8999 9.59 6.2399 9.25 6.6499 9.25H12.1499C12.5599 9.25 12.8999 9.59 12.8999 10C12.8999 10.41 12.5599 10.75 12.1499 10.75Z" fill="white"/>
</svg>
