<svg width="25" height="24" viewBox="0 0 25 24" fill="none" xmlns="http://www.w3.org/2000/svg">
<path d="M12.7998 22.75C12.0198 22.75 11.2598 22.35 10.7398 21.65L9.7298 20.3C9.5198 20.02 9.23981 19.86 8.93981 19.84C8.6398 19.83 8.3398 19.96 8.0998 20.21L7.5298 19.7L8.0798 20.21C6.6398 21.75 5.5298 21.63 4.9998 21.42C4.4598 21.21 3.5498 20.52 3.5498 18.3V7.04C3.5498 2.6 4.8298 1.25 9.0198 1.25H16.5798C20.7698 1.25 22.0498 2.6 22.0498 7.04V18.3C22.0498 20.51 21.1398 21.2 20.5998 21.42C20.0698 21.63 18.9698 21.75 17.5198 20.21C17.2798 19.95 16.9798 19.81 16.6698 19.84C16.3698 19.86 16.0798 20.02 15.8698 20.3L14.8598 21.65C14.3398 22.35 13.5798 22.75 12.7998 22.75ZM8.8798 18.33C8.9198 18.33 8.9698 18.33 9.0098 18.33C9.7498 18.37 10.4498 18.76 10.9198 19.39L11.9298 20.74C12.4198 21.39 13.1698 21.39 13.6598 20.74L14.6698 19.39C15.1498 18.76 15.8398 18.37 16.5898 18.33C17.3298 18.29 18.0698 18.6 18.6098 19.18C19.3698 19.99 19.8598 20.09 20.0398 20.02C20.2798 19.92 20.5398 19.34 20.5398 18.3V7.04C20.5398 3.43 19.9098 2.75 16.5698 2.75H9.0198C5.67981 2.75 5.0498 3.43 5.0498 7.04V18.3C5.0498 19.35 5.3098 19.93 5.5498 20.02C5.7198 20.09 6.2198 19.99 6.9798 19.18C7.5198 18.63 8.1898 18.33 8.8798 18.33Z" fill="white"/>
<path d="M17.0298 11.75H11.5298C11.1198 11.75 10.7798 11.41 10.7798 11C10.7798 10.59 11.1198 10.25 11.5298 10.25H17.0298C17.4398 10.25 17.7798 10.59 17.7798 11C17.7798 11.41 17.4398 11.75 17.0298 11.75Z" fill="white"/>
<path d="M17.0298 7.75H11.5298C11.1198 7.75 10.7798 7.41 10.7798 7C10.7798 6.59 11.1198 6.25 11.5298 6.25H17.0298C17.4398 6.25 17.7798 6.59 17.7798 7C17.7798 7.41 17.4398 7.75 17.0298 7.75Z" fill="white"/>
<path d="M8.57959 8C8.02959 8 7.57959 7.55 7.57959 7C7.57959 6.45 8.02959 6 8.57959 6C9.12959 6 9.57959 6.45 9.57959 7C9.57959 7.55 9.12959 8 8.57959 8Z" fill="white"/>
<path d="M8.57959 12C8.02959 12 7.57959 11.55 7.57959 11C7.57959 10.45 8.02959 10 8.57959 10C9.12959 10 9.57959 10.45 9.57959 11C9.57959 11.55 9.12959 12 8.57959 12Z" fill="white"/>
</svg>
