<svg width="25" height="24" viewBox="0 0 25 24" fill="none" xmlns="http://www.w3.org/2000/svg">
<path d="M15.7998 22.75H9.7998C4.3698 22.75 2.0498 20.43 2.0498 15V9C2.0498 3.57 4.3698 1.25 9.7998 1.25H15.7998C21.2298 1.25 23.5498 3.57 23.5498 9V15C23.5498 20.43 21.2298 22.75 15.7998 22.75ZM9.7998 2.75C5.1898 2.75 3.5498 4.39 3.5498 9V15C3.5498 19.61 5.1898 21.25 9.7998 21.25H15.7998C20.4098 21.25 22.0498 19.61 22.0498 15V9C22.0498 4.39 20.4098 2.75 15.7998 2.75H9.7998Z" fill="white"/>
<path d="M16.7998 19.75H8.7998C6.3798 19.75 5.0498 18.42 5.0498 16V8C5.0498 5.58 6.3798 4.25 8.7998 4.25H16.7998C19.2198 4.25 20.5498 5.58 20.5498 8V16C20.5498 18.42 19.2198 19.75 16.7998 19.75ZM8.7998 5.75C7.2198 5.75 6.5498 6.42 6.5498 8V16C6.5498 17.58 7.2198 18.25 8.7998 18.25H16.7998C18.3798 18.25 19.0498 17.58 19.0498 16V8C19.0498 6.42 18.3798 5.75 16.7998 5.75H8.7998Z" fill="white"/>
<path d="M8.2798 15.25H5.7998C5.3898 15.25 5.0498 14.91 5.0498 14.5C5.0498 14.09 5.3898 13.75 5.7998 13.75H8.2798C9.2498 13.75 10.0298 12.96 10.0298 12C10.0298 11.04 9.2398 10.25 8.2798 10.25H5.7998C5.3898 10.25 5.0498 9.91 5.0498 9.5C5.0498 9.09 5.3898 8.75 5.7998 8.75H8.2798C10.0698 8.75 11.5298 10.21 11.5298 12C11.5298 13.79 10.0798 15.25 8.2798 15.25Z" fill="white"/>
<path d="M19.7998 10.74H16.7998C16.3898 10.74 16.0498 10.4 16.0498 9.98999C16.0498 9.57999 16.3898 9.23999 16.7998 9.23999H19.7998C20.2098 9.23999 20.5498 9.57999 20.5498 9.98999C20.5498 10.4 20.2098 10.74 19.7998 10.74Z" fill="white"/>
<path d="M19.7998 14.75H16.7998C16.3898 14.75 16.0498 14.41 16.0498 14C16.0498 13.59 16.3898 13.25 16.7998 13.25H19.7998C20.2098 13.25 20.5498 13.59 20.5498 14C20.5498 14.41 20.2098 14.75 19.7998 14.75Z" fill="white"/>
<path d="M8.0498 13C7.9198 13 7.7898 12.97 7.6698 12.92C7.5498 12.87 7.4398 12.8 7.3398 12.71C7.1498 12.52 7.0498 12.27 7.0498 12C7.0498 11.74 7.1598 11.48 7.3398 11.29C7.6198 11.02 8.05981 10.92 8.42981 11.08C8.55981 11.13 8.66981 11.2 8.75981 11.29C8.93981 11.48 9.0498 11.74 9.0498 12C9.0498 12.27 8.94981 12.52 8.75981 12.71C8.65981 12.8 8.54981 12.87 8.42981 12.92C8.30981 12.97 8.1798 13 8.0498 13Z" fill="white"/>
</svg>
