<svg width="25" height="24" viewBox="0 0 25 24" fill="none" xmlns="http://www.w3.org/2000/svg">
<path d="M17.2002 20.75H7.2002C2.7902 20.75 1.4502 19.41 1.4502 15V14.5C1.4502 14.09 1.7902 13.75 2.2002 13.75C3.1602 13.75 3.9502 12.96 3.9502 12C3.9502 11.04 3.1602 10.25 2.2002 10.25C1.7902 10.25 1.4502 9.91 1.4502 9.5V9C1.4502 4.59 2.7902 3.25 7.2002 3.25H17.2002C21.6102 3.25 22.9502 4.59 22.9502 9V10C22.9502 10.41 22.6102 10.75 22.2002 10.75C21.2402 10.75 20.4502 11.54 20.4502 12.5C20.4502 13.46 21.2402 14.25 22.2002 14.25C22.6102 14.25 22.9502 14.59 22.9502 15C22.9502 19.41 21.6102 20.75 17.2002 20.75ZM2.9502 15.16C2.9702 18.6 3.6802 19.25 7.2002 19.25H17.2002C20.5402 19.25 21.3502 18.66 21.4402 15.66C20.0102 15.32 18.9502 14.03 18.9502 12.5C18.9502 10.97 20.0202 9.68 21.4502 9.34V9C21.4502 5.43 20.7802 4.75 17.2002 4.75H7.2002C3.6802 4.75 2.9702 5.4 2.9502 8.84C4.3802 9.18 5.4502 10.47 5.4502 12C5.4502 13.53 4.3802 14.82 2.9502 15.16Z" fill="white"/>
<path d="M10.2002 7.25C9.7902 7.25 9.4502 6.91 9.4502 6.5V4C9.4502 3.59 9.7902 3.25 10.2002 3.25C10.6102 3.25 10.9502 3.59 10.9502 4V6.5C10.9502 6.91 10.6102 7.25 10.2002 7.25Z" fill="white"/>
<path d="M10.2002 14.58C9.7902 14.58 9.4502 14.24 9.4502 13.83V10.16C9.4502 9.75 9.7902 9.41 10.2002 9.41C10.6102 9.41 10.9502 9.75 10.9502 10.16V13.83C10.9502 14.25 10.6102 14.58 10.2002 14.58Z" fill="white"/>
<path d="M10.2002 20.75C9.7902 20.75 9.4502 20.41 9.4502 20V17.5C9.4502 17.09 9.7902 16.75 10.2002 16.75C10.6102 16.75 10.9502 17.09 10.9502 17.5V20C10.9502 20.41 10.6102 20.75 10.2002 20.75Z" fill="white"/>
</svg>
