<svg width="25" height="24" viewBox="0 0 25 24" fill="none" xmlns="http://www.w3.org/2000/svg">
<path d="M13.7998 9.75H7.7998C7.3898 9.75 7.0498 9.41 7.0498 9C7.0498 8.59 7.3898 8.25 7.7998 8.25H13.7998C14.2098 8.25 14.5498 8.59 14.5498 9C14.5498 9.41 14.2098 9.75 13.7998 9.75Z" fill="white"/>
<path d="M19.8397 14.7999C18.3297 14.7999 17.0497 13.6799 16.9297 12.2399C16.8497 11.4099 17.1497 10.5999 17.7497 10.0099C18.2497 9.48995 18.9597 9.19995 19.7097 9.19995H21.7997C22.7897 9.22995 23.5497 10.0099 23.5497 10.9699V13.03C23.5497 13.99 22.7897 14.7699 21.8297 14.7999H19.8397ZM21.7697 10.7H19.7197C19.3697 10.7 19.0497 10.8299 18.8197 11.0699C18.5297 11.3499 18.3897 11.7299 18.4297 12.1099C18.4797 12.7699 19.1197 13.2999 19.8397 13.2999H21.7997C21.9297 13.2999 22.0497 13.18 22.0497 13.03V10.9699C22.0497 10.8199 21.9297 10.71 21.7697 10.7Z" fill="white"/>
<path d="M16.7998 21.25H7.7998C4.3598 21.25 2.0498 18.94 2.0498 15.5V8.5C2.0498 5.42 3.94978 3.19001 6.89978 2.82001C7.16978 2.78001 7.4798 2.75 7.7998 2.75H16.7998C17.0398 2.75 17.3498 2.76 17.6698 2.81C20.6198 3.15 22.5498 5.39 22.5498 8.5V9.95001C22.5498 10.36 22.2098 10.7 21.7998 10.7H19.7198C19.3698 10.7 19.0498 10.83 18.8198 11.07L18.8098 11.08C18.5298 11.35 18.3998 11.72 18.4298 12.1C18.4798 12.76 19.1198 13.29 19.8398 13.29H21.7998C22.2098 13.29 22.5498 13.63 22.5498 14.04V15.49C22.5498 18.94 20.2398 21.25 16.7998 21.25ZM7.7998 4.25C7.5598 4.25 7.32979 4.26999 7.09979 4.29999C4.89979 4.57999 3.5498 6.18 3.5498 8.5V15.5C3.5498 18.08 5.2198 19.75 7.7998 19.75H16.7998C19.3798 19.75 21.0498 18.08 21.0498 15.5V14.8H19.8398C18.3298 14.8 17.0498 13.68 16.9298 12.24C16.8498 11.42 17.1498 10.6 17.7498 10.02C18.2698 9.49002 18.9698 9.20001 19.7198 9.20001H21.0498V8.5C21.0498 6.16 19.6798 4.54998 17.4598 4.28998C17.2198 4.24998 17.0098 4.25 16.7998 4.25H7.7998Z" fill="white"/>
</svg>
